<?xml version="1.0" encoding="utf-8"?>
<svg version="1.1" id="Layer_1"
xmlns="http://www.w3.org/2000/svg"
xmlns:xlink="http://www.w3.org/1999/xlink"
width="717px" height="400px"
xml:space="preserve">
<g id="PathID_77" transform="matrix(0.735432, 0, 0, 0.735432, 44.75, 89.65)" opacity="1">
<path style="fill:#221E20;fill-opacity:1" d="M149.4 27.45Q151.1 38.1 148.25 51.75Q145.6 64.65 139.4 77.75Q133.3 90.7 125.3 100.75L130.95 110.95L128.5 109.35L125.3 112.45L120 106.75L119.25 107.6Q116.1 105.5 107.85 97.95L105.95 98.7L106.85 97.2L102.55 92.95L100.75 94.35L100.7 92.2L91.1 82.9L89 84.45L89.6 81.85L82.35 73.2L69.15 71.3L65.8 75L66.5 70.9L57.1 69.55L54.65 68L52.7 68.85L46.75 68.15L45.2 70.15L44.8 67.7L30.4 65.3L27.95 66.05L28.45 64.75L23.05 63.75L24.05 61.4L7.6 58.75L4.85 58.8L0 54.5L1.3 52.9L3.1 54.1L6.8 53.2L8.75 53.7L63.05 51.4L71 40.6L75.35 36.4L77.2 35.65Q80.2 36.9 81.2 37.85Q82.55 39.15 82.8 42Q80.65 46.7 75.85 51L85.5 51.6L88.35 50.7L110.6 24.55L114.05 22.05L115.95 21.3L117.3 21.95L119.45 20.9Q125.9 18.05 128.4 19.25Q131.5 20.75 127.2 28.1L103.6 55.05L102.95 57.7L104.05 57.7L112.55 76.5L113.55 73.95L122 65.5Q124.75 65.55 125.75 66.65Q126.45 67.35 127.45 70.3L124.45 75L120.4 79.95L115.9 83.6L123.4 97.35L127 92.85Q132.15 85.25 136.15 73.9Q140.35 61.9 141.55 50.3Q144.55 21.65 128.9 12.95Q111.05 3.15 86.9 14.55Q64.55 25.1 49 47.2L43.5 47.4Q52.25 33.9 64.55 22.9Q77 11.85 90.35 5.8Q104.45 -0.5 116.9 0.05Q130.45 0.7 140.35 9.5Q147.5 15.85 149.4 27.45M7.95 78.25L39.6 77L63.25 77.9Q74.2 80 82.75 87.2Q92.1 95 101.7 111.3L101.85 111.3L103.4 114.1L105.25 116.9Q87.95 125.45 71.8 124.45Q55.25 123.3 46.5 112.4Q40.75 105.4 38.25 96.25L41.95 96.75L45.45 96.95Q47.7 102.15 51.7 106.75Q57.2 113.55 66.1 115.95Q74.15 118.1 84.35 116.45Q79.5 103.1 71.35 95.85Q64.3 89.65 53.5 87Q45.9 85.2 31.55 84.35L6.5 82.45Q2.15 79 7.95 78.25" />
</g>
<g id="PathID_78" transform="matrix(0.842744, 0, 0, 0.842744, 261.75, 135.15)" opacity="1">
<path style="fill:#221E20;fill-opacity:1" d="M45.4 -29.45Q46.15 -29.45 46.9 -28.95Q47.7 -28.5 47.7 -27.6Q47.7 -26.15 45.6 -23.8Q44.9 -23.15 43.85 -20.8Q42.8 -18.45 42.8 -17.85Q42.8 -17.25 43.05 -16.75Q43.3 -16.25 43.3 -15.65Q43.3 -15.1 42.6 -14.4Q41.95 -13.75 40.55 -13.75Q39.2 -13.75 37.4 -14Q35.65 -14.3 32.65 -14.3L29.15 -14.25Q28.7 -14.2 28.5 -13.95Q28.3 -13.7 28.3 -12.6L28.35 -7Q28.35 -0.65 28 0.2Q27.65 1.1 26.55 1.65Q25.45 2.2 24.55 2.2Q23.7 2.2 23.4 1.55Q23.1 0.95 23.1 -1.2Q23.1 -3.35 23.25 -7.2L23.5 -13.4Q23.5 -14 22.8 -14Q21.15 -14 16.05 -13.05Q10.95 -12.1 6.95 -9.9Q6.4 -9.6 5.9 -9.6Q4.65 -9.6 4.65 -10.8Q4.65 -12.05 5.4 -13.4Q6.2 -14.8 7.25 -15.6Q8.3 -16.4 8.75 -18.05Q9.25 -19.75 9.25 -20.9Q9.25 -23.05 7.75 -23.7Q6.3 -24.35 5.6 -25.2Q4.9 -26.05 4.9 -26.9Q4.9 -27.8 5.45 -28.05Q6 -28.3 7.85 -28.55L11.4 -29.1Q16.85 -30.3 22.75 -30.7Q23.7 -30.75 23.95 -31.5Q24.55 -33.6 25.95 -33.6Q27.4 -33.6 28.3 -31.45Q28.45 -31.05 28.65 -30.95L29.9 -30.9Q35.95 -30.9 39.2 -29.95Q42.45 -29 43.25 -29Q44.05 -29 44.45 -29.2Q44.9 -29.45 45.4 -29.45M37.65 -19.25Q38.2 -19.25 38.4 -19.6L39.4 -21.75Q40.2 -23.5 40.2 -24.15Q40.2 -24.8 39.7 -25.1Q39.2 -25.4 36.25 -25.6Q33.3 -25.85 31.3 -25.85L29 -25.8Q28.7 -25.8 28.55 -25.65Q28.4 -25.5 28.35 -25L28.3 -20.6Q28.3 -19.85 28.5 -19.7Q28.7 -19.6 29.25 -19.65L31.5 -19.7Q33.2 -19.7 35.1 -19.5L37.65 -19.25M13.6 -18L13.75 -18Q17.85 -18.9 22.75 -19.3Q22.95 -19.3 23.35 -19.5Q23.8 -19.75 23.85 -20.35Q23.95 -21 23.95 -24.4Q23.95 -25.1 23.85 -25.25Q23.8 -25.45 23.25 -25.45Q22.75 -25.45 20.55 -25.1Q18.35 -24.75 16.55 -24.35Q14.75 -24 14.45 -23.8Q14.15 -23.65 13.85 -23.3L13.5 -22.7Q13.4 -22.45 13.4 -21.4Q13.4 -20.35 13.2 -18.6Q13.2 -18 13.6 -18" />
</g>
<g id="PathID_79" transform="matrix(0.842744, 0, 0, 0.842744, 342.25, 135.15)" opacity="1">
<path style="fill:#221E20;fill-opacity:1" d="M31.55 -8.5Q31.35 -9 31.05 -9Q30.8 -9 28.95 -6.25Q27.1 -3.55 24.9 -1.2Q22.7 1.15 22.1 1.15Q21.5 1.15 21.1 0.55Q20.75 0 20.75 -0.45Q20.75 -1.25 23.25 -5.7Q25.75 -10.15 28.3 -13.25Q28.8 -13.85 28.8 -14.2Q28.8 -14.55 28.5 -15.3Q28.2 -16.05 27.75 -16.05Q27.15 -16.05 25.3 -14.15Q23.5 -12.3 22.25 -10.05Q19.8 -6 18.4 -4.35Q17.05 -2.75 16.1 -2.75Q15.2 -2.75 15.2 -3.7Q15.2 -4.7 16.05 -6.8Q16.9 -8.95 20.4 -14.25L21 -15.25L20.95 -15.3L20.1 -15.1Q19.35 -14.95 18.45 -14.95Q15.85 -14.95 15.85 -17.4Q15.85 -18.65 16.65 -19.75Q17.5 -20.85 18.6 -20.85Q19.05 -20.85 19.4 -20.65Q19.75 -20.5 19.95 -20.5Q20.15 -20.5 20.6 -20.75Q21.05 -21 22.35 -21.45Q23.7 -21.9 24.65 -22.05Q25.6 -22.25 25.6 -22.35L25.3 -23.1Q25 -23.75 24.8 -23.75Q24.05 -23.75 22.35 -23.2Q20.65 -22.7 18.8 -22.7Q16.95 -22.7 15.85 -23.5Q14.75 -24.3 14.75 -25.75Q14.75 -27.25 15.5 -28.1Q16.25 -28.95 17.35 -28.95Q17.85 -28.95 18.15 -28.75Q18.5 -28.6 18.85 -28.6Q19.95 -28.6 21.4 -29.2Q22.85 -29.85 22.7 -30.45Q22.5 -31.35 22.5 -32.05Q22.5 -34.7 24.5 -34.7Q25.45 -34.7 26 -33.8Q26.6 -32.95 27.3 -30.95Q27.65 -29.9 28.55 -29.9L30.05 -29.95L32.3 -30.1L33.3 -30.15L33.55 -30.4Q33.75 -30.6 34 -31.05L34.65 -32.55Q35.05 -33.6 36.2 -33.6Q37.6 -33.6 38.2 -32.95Q38.85 -32.35 39.3 -30.15Q39.4 -29.8 39.5 -29.7L41.6 -29.2Q43.65 -28.8 44.65 -28.25Q45.7 -27.75 45.7 -26.95Q45.7 -26.2 44.2 -25.05Q42.7 -23.9 40.15 -23.9Q39.35 -23.9 38.3 -24.05Q37.3 -24.2 34.25 -24.2Q31.25 -24.2 30.45 -24.1Q29.7 -24.05 29.7 -23.95L30 -23.4Q30.35 -23 30.55 -22.9Q32.35 -22.5 32.35 -21.15Q32.35 -20.6 32.05 -20.15Q31.8 -19.7 31.8 -19.4Q31.8 -19.1 32.2 -18.3L32.65 -17.5L32.9 -17.65Q34.65 -19.2 37.15 -20.8Q39.7 -22.45 40.8 -22.45Q41.9 -22.45 41.9 -20.35Q41.9 -19 41.1 -18.2Q40.3 -17.45 37.75 -16.05Q37.3 -15.75 36.35 -14.85L35.2 -13.7L35.05 -13.4Q35.05 -12.65 37.05 -10Q39.1 -7.4 42.55 -5.1Q46 -2.8 48.75 -2.8Q49.85 -2.8 49.85 -2.1Q49.85 -1.4 47.3 0.75Q44.8 2.95 40.95 2.95Q38.6 2.95 37.4 2.25Q36.2 1.55 35.25 0.2Q34.3 -1.15 33.1 -4.3L31.55 -8.5M11.85 -29.3Q13.4 -29.3 14.3 -26.9Q15.25 -24.55 15.25 -21.3Q15.25 -18.05 14 -11.85Q12.75 -5.65 10.6 -3.75Q8.5 -1.9 7.2 -1.9Q5.9 -1.9 5.25 -3.05Q4.6 -4.2 4.6 -6.1Q4.6 -8 5.25 -8.4Q5.35 -8.45 5.55 -9.05L5.85 -10.25Q6.1 -12 6.95 -12Q7.5 -12 7.75 -11.5L8.05 -11.05Q8.15 -11.05 8.45 -11.45Q8.75 -11.9 9.5 -13.7Q10.25 -15.5 10.65 -18.1Q11.05 -20.7 11.05 -22.1Q11.05 -23.5 10.6 -24.85Q10.15 -26.25 10.15 -27.15Q10.15 -28.05 10.6 -28.65Q11.1 -29.3 11.85 -29.3" />
</g>
<g id="PathID_80" transform="matrix(0.842744, 0, 0, 0.842744, 422.7, 135.15)" opacity="1">
<path style="fill:#221E20;fill-opacity:1" d="M44.85 -30.75Q46.65 -30.75 46.65 -28.25Q46.65 -27.65 46.35 -26.9Q46.1 -26.2 45.15 -24.3Q44.7 -23.4 44.45 -21.25Q44.25 -19.15 44.25 -15.8Q44.25 -12.45 44.55 -8.9Q44.9 -5.35 44.9 -3.2Q44.9 -1.05 44.2 0.2Q43.55 1.45 42.9 1.45Q42.25 1.45 40.75 0.3Q39.25 -0.85 37.8 -0.9L33.95 -1.3Q30.85 -1.7 25.35 -1.7Q18.05 -1.7 16.3 -1.05Q12.1 0.5 10.15 0.5Q9.45 0.5 9.05 0.35L8.65 0.25Q8.75 0.25 8.3 1.05Q7.9 1.9 7.2 1.9Q6.5 1.9 6.1 0.6Q5.75 -0.7 5.75 -2.6Q5.75 -4.5 6.25 -7.2Q6.75 -9.95 6.75 -17.45Q6.75 -21.8 6.45 -22.45Q5.8 -24.2 5.55 -25.1Q5.3 -26.05 5.3 -27.3Q5.3 -31 6.85 -31Q7.3 -31 7.75 -30.7Q9.05 -30 9.85 -30L11 -30.05Q15.75 -30.7 19.9 -31.05Q24.1 -31.4 32.15 -31.4Q40.2 -31.4 42.5 -30.65Q43 -30.5 43.3 -30.5L44.05 -30.6Q44.5 -30.75 44.85 -30.75M40.5 -12.4Q40.5 -19.3 41.15 -22.4Q41.45 -23.85 41.45 -24.7Q41.45 -25.55 40.65 -25.9Q39.9 -26.25 36.95 -26.6Q34.05 -27 30.3 -27Q24.2 -27 19 -26.4Q13.8 -25.8 11.55 -24.95Q11.1 -24.85 10.85 -24.5Q10.65 -24.15 10.55 -23.15Q10.35 -20.35 10.15 -10.45L9.9 -5.05L9.9 -4.45L10.35 -4.45Q10.8 -4.45 12.3 -4.8Q20.6 -7.15 28.6 -7.15Q33.4 -7.15 36.8 -6.25Q37.85 -6 39.15 -6Q40.45 -6 40.6 -6.2Q40.75 -6.4 40.75 -7.15Q40.75 -7.9 40.6 -8.95Q40.5 -10 40.5 -12.4M40.5 -23.75Q40.5 -23.25 39.5 -22Q38.5 -20.8 36.45 -20.8L34 -20.95Q32.15 -21.1 29.65 -21.1Q27.2 -21.1 26.85 -21Q26.55 -20.95 26.55 -20.75Q26.55 -20.15 26.65 -20.05Q26.8 -19.95 28.25 -19.95L30.9 -20Q33.7 -20 36.4 -19.55Q39.1 -19.15 39.1 -18.1Q39.1 -17.7 38.65 -16.65Q38.25 -15.65 37.5 -15.3Q36.75 -15 35.2 -14.9Q33.7 -14.85 33.5 -14.75Q33.35 -14.65 33.35 -14.1Q33.35 -13.55 33.5 -13.45L34.6 -13.3Q35.55 -13.25 36.3 -13L37.3 -12.75L37.75 -12.85Q38 -13 38.4 -13Q39.65 -13 39.65 -11.65Q39.65 -10.3 38.9 -8.95Q38.2 -7.65 35.95 -7.65Q34.95 -7.65 33.2 -7.95Q31.5 -8.3 28.1 -8.3Q24.75 -8.3 21.25 -7.8Q17.8 -7.3 16 -6.6Q14.2 -5.95 13.45 -5.95Q11.35 -5.95 11.35 -9.7Q11.35 -11.65 12.75 -11.65Q13.3 -11.65 13.6 -11.45Q13.9 -11.3 14.6 -11.3Q15.3 -11.3 15.6 -11.45Q17.35 -12.1 20.95 -12.65Q21.7 -12.9 22 -13.2Q22.3 -13.55 22.3 -14.6Q22.3 -14.75 21.85 -14.75Q21.4 -14.75 19.5 -14.4Q17.6 -14.05 16.55 -13.6Q15.5 -13.15 14.3 -13.15Q13.15 -13.15 12.3 -13.7Q11.45 -14.25 11.45 -15.05Q11.45 -15.9 12.15 -16.9Q12.85 -17.9 13.35 -17.9Q13.85 -17.9 14.05 -17.8L14.35 -17.7L15 -17.95Q17.5 -18.9 20.2 -19.3L21.95 -19.65Q22.25 -19.8 22.25 -20.1L22.2 -20.45L21.7 -20.5Q19.85 -20.5 17.5 -19.9Q15.15 -19.3 13.85 -19.3Q10.85 -19.3 10.85 -21.25Q10.85 -22.05 11.35 -22.9Q11.85 -23.75 12.45 -24Q13.1 -24.25 14.1 -24.25Q15.4 -24.25 16.05 -24.55Q19.95 -25.85 29 -25.85Q34.75 -25.85 37.6 -25.3Q40.5 -24.75 40.5 -23.75M27.45 -13.4Q28.8 -13.4 29.15 -13.65Q29.55 -13.9 29.55 -14.7Q29.55 -14.85 29.25 -14.95Q28.95 -15.1 27.95 -15.1Q26.95 -15.1 26.75 -15Q26.55 -14.9 26.55 -14.25Q26.55 -13.6 26.65 -13.5Q26.75 -13.4 27.45 -13.4" />
</g>
<g id="PathID_81" transform="matrix(0.842744, 0, 0, 0.842744, 503.15, 135.15)" opacity="1">
<path style="fill:#221E20;fill-opacity:1" d="M20.25 -31.2Q21.3 -31.2 21.95 -30.65Q22.65 -30.1 22.65 -28.75Q22.65 -27.45 21.5 -26.6Q20.4 -25.8 18.95 -24.1L17.4 -22.2Q17.25 -21.95 17.25 -21.55Q17.25 -21.2 18.3 -19L19.75 -16.3Q20.15 -15.75 20.15 -14.95Q20.15 -14.15 19.5 -13.35Q18.85 -12.6 16 -11.1Q13.15 -9.6 10.3 -8.5Q9.8 -8.3 9.8 -8Q9.75 -3.25 9.45 -2L9.2 -0.5Q9.2 -0.25 9.3 -0.1Q9.4 0.05 9.4 0.3Q9.4 1.3 8.15 1.3Q5.65 1.3 5.65 -3.1L5.75 -6.3Q5.9 -9.25 5.9 -12.9Q5.9 -16.6 5.65 -19.6Q5.45 -22.6 5.25 -22.9Q4.55 -23.65 4.55 -26.35Q4.55 -29.05 4.85 -30.15Q5.2 -31.25 6.4 -31.25Q7 -31.25 7.7 -30.6L8 -30.55L8.3 -30.6Q12.55 -31.75 14.5 -31.75Q16.45 -31.75 17.5 -31.35Q18.55 -31 18.85 -31Q19.2 -31 19.5 -31.1Q19.85 -31.2 20.25 -31.2M14.45 -25.3Q13.15 -25.3 11.45 -24.8Q9.75 -24.35 9.6 -24.15Q9.5 -24 9.5 -23.25Q9.5 -22.55 9.65 -22.3Q9.8 -22.1 10.4 -22.1Q11 -22.1 12.85 -23.5Q14.75 -24.95 14.75 -25.1Q14.75 -25.3 14.45 -25.3M14.75 -15.85Q14.75 -16.15 13.9 -16.55Q13.1 -17 12.5 -17Q11.95 -17 10.85 -16.7Q9.8 -16.45 9.7 -16.25L9.65 -15.45L9.7 -13.5L9.75 -12.5L10.05 -12.5Q10.35 -12.5 11.75 -13.1Q13.2 -13.7 13.95 -14.45Q14.75 -15.25 14.75 -15.85M44.6 -28.45Q44.6 -27.75 43.95 -26.75Q43.35 -25.8 42.5 -25.35Q41.7 -24.9 40.8 -24.75Q39.95 -24.65 37.9 -24.65Q30.85 -24.65 25.8 -24.1Q25.05 -24 24.15 -24Q23.3 -24 22.8 -24.65Q22.3 -25.35 22.3 -27Q22.3 -28.65 22.95 -29.75Q23.6 -30.9 24.45 -30.9Q24.75 -30.9 25 -30.75Q25.25 -30.6 25.5 -30.6L25.95 -30.65Q29.45 -31.55 32.5 -31.55Q35.55 -31.55 37.6 -31.3Q39.65 -31.05 41.6 -30.5Q43.55 -29.95 44.05 -29.5Q44.6 -29.1 44.6 -28.45M46.9 -20.95Q46.9 -19.9 46.2 -18.35Q45.55 -16.85 43.95 -15.8Q42.4 -14.75 41.05 -14.75Q39.7 -14.75 38.95 -15.1Q38.25 -15.45 36.65 -15.65Q35.1 -15.9 34.35 -15.9Q33.65 -15.9 33.5 -15.75Q33.35 -15.65 33.2 -15.15Q33.1 -14.65 33 -11.75Q32.9 -8.85 32.9 -5.15L32.95 -1Q32.95 0 32.4 0.75Q31.9 1.5 30.85 1.5Q29.8 1.5 29.6 0.95Q29.4 0.4 29.3 -0.55L29.25 -2.25Q29.25 -2.95 29.5 -5.6Q29.75 -8.25 29.75 -11.1Q29.75 -13.95 29.6 -14.75Q29.45 -15.55 28.8 -15.55Q28.15 -15.55 26.35 -15.3Q24.6 -15.1 24.35 -14.95Q23.35 -14.45 22.5 -14.45Q20.15 -14.45 20.15 -17.9Q20.15 -19.55 20.95 -20.5Q21.8 -21.45 22.45 -21.45Q23.15 -21.45 23.5 -21.25Q23.85 -21.05 24.9 -21.05Q25.95 -21.05 26.6 -21.3Q28.9 -22.3 31.3 -22.3Q33.7 -22.3 36.1 -22Q38.5 -21.7 40.05 -21.7Q44.4 -21.7 45.25 -22.05Q45.6 -22.2 45.9 -22.2Q46.9 -22.2 46.9 -20.95M36.9 -13.5Q37.8 -13.5 38.25 -12.75Q38.7 -12 40.5 -10.55Q42.3 -9.1 43.3 -8.6Q44.3 -8.15 45.75 -6.7Q47.2 -5.25 47.2 -4.45Q47.2 -3.7 45.2 -2.25Q43.2 -0.85 41.3 -0.85Q40.1 -0.85 39.15 -1.35Q38.25 -1.9 37.6 -3.1Q37 -4.3 35.75 -7.55Q34.55 -10.85 34.55 -11.65Q34.55 -12.5 35.45 -13Q36.4 -13.5 36.9 -13.5M27.6 -11.15Q27.6 -9.7 24.75 -5.85Q21.95 -2 19.6 -2Q17.9 -2 16.25 -4Q14.65 -6.05 14.65 -6.8Q14.65 -7.55 15.55 -7.65Q16.75 -7.75 19.15 -8.75Q21.55 -9.75 22.55 -10.65Q25.2 -12.9 26.25 -12.9Q26.75 -12.9 27.15 -12.35Q27.6 -11.8 27.6 -11.15" />
</g>
<g id="PathID_82" transform="matrix(0.48308, 0, 0, 0.48308, 187.1, 172.5)" opacity="1">
<path style="fill:#221E20;fill-opacity:1" d="M25.55 -35.15L28.05 -35.15L30.8 -23.8L27.7 -22.95Q25.5 -27.5 22.4 -29.75Q19.3 -32.05 15.75 -32.05Q12.75 -32.05 10.85 -30.65Q9 -29.25 9 -27.3Q9 -25.5 10.55 -24.2Q12.1 -22.95 16.1 -21.75L22.05 -20.05Q27.1 -18.6 29.55 -16.1Q32.05 -13.65 32.05 -10.05Q32.05 -5.7 28.2 -2.5Q24.4 0.65 18.7 0.65Q15.4 0.65 13 -0.35Q10.65 -1.35 8.8 -3.25L7.8 0L5.3 0L2.9 -13.15L6.05 -13.75Q8 -8.5 11.45 -5.8Q14.9 -3.15 18.7 -3.15Q21.85 -3.15 24.2 -4.9Q26.6 -6.65 26.6 -8.95Q26.6 -11.15 24.95 -12.4Q23.35 -13.7 19.55 -14.8L13.45 -16.55Q8.55 -17.95 6.1 -20.3Q3.7 -22.7 3.7 -26.25Q3.7 -30.15 7.2 -32.95Q10.75 -35.75 16.05 -35.75Q21.5 -35.75 24.65 -32.8L25.55 -35.15" />
</g>
<g id="PathID_83" transform="matrix(0.48308, 0, 0, 0.48308, 203.4, 172.5)" opacity="1">
<path style="fill:#221E20;fill-opacity:1" d="M5 -32.45Q5 -33.85 5.95 -34.8Q6.95 -35.75 8.35 -35.75Q9.75 -35.75 10.7 -34.75Q11.7 -33.8 11.7 -32.45Q11.7 -31.05 10.7 -30.05Q9.75 -29.1 8.35 -29.1Q6.95 -29.1 5.95 -30.05Q5 -31.05 5 -32.45M1.6 -20.1L1.6 -23.05Q5.7 -23.6 8.5 -25.2L11 -25.2L11 -5.05Q11 -3.65 11.6 -3.35Q12.2 -3.05 13.5 -3.05L15.2 -3.05L15.2 0L1.6 0L1.6 -3.05L3.1 -3.05Q4.95 -3.05 5.4 -3.55Q5.85 -4.05 5.85 -6.2L5.85 -20.1L1.6 -20.1" />
</g>
<g id="PathID_84" transform="matrix(0.48308, 0, 0, 0.48308, 210.85, 172.5)" opacity="1">
<path style="fill:#221E20;fill-opacity:1" d="M1.85 -20.1L1.85 -23.1Q4.4 -23.35 5.5 -23.7Q6.6 -24.1 8.6 -25.2L11 -25.2L11 -20.55Q12.95 -22.85 15.4 -24Q17.85 -25.2 20.6 -25.2Q22.5 -25.2 24.05 -24.6Q25.6 -24.05 26.65 -23Q27.7 -21.95 28.2 -20.65Q28.75 -19.35 28.75 -16.85L28.75 -6.05Q28.75 -4.4 28.9 -3.9Q29.05 -3.4 29.7 -3.2Q30.35 -3.05 32.9 -3.05L32.9 0L19.25 0L19.25 -3.05L20.4 -3.05Q22.45 -3.05 22.95 -3.55Q23.5 -4.05 23.5 -6.3L23.5 -15.3Q23.5 -18.1 23.05 -19.05Q22.65 -20 21.7 -20.55Q20.75 -21.1 19.3 -21.1Q15.25 -21.1 11.2 -17.4L11.2 -6.3Q11.2 -4.6 11.45 -3.95Q11.75 -3.35 12.25 -3.2Q12.75 -3.05 14.25 -3.05L15.5 -3.05L15.5 0L1.85 0L1.85 -3.05L2.95 -3.05Q4.5 -3.05 5 -3.2Q5.55 -3.4 5.75 -4.05Q6 -4.75 6 -6.65L6 -20.1L1.85 -20.1" />
</g>
<g id="PathID_85" transform="matrix(0.48308, 0, 0, 0.48308, 227.2, 172.5)" opacity="1">
<path style="fill:#221E20;fill-opacity:1" d="M2 -12.25Q2 -18 5.5 -21.6Q9 -25.2 14.7 -25.2Q20.3 -25.2 23.7 -21.65Q27.15 -18.1 27.15 -12.3Q27.15 -6.5 23.65 -2.9Q20.2 0.65 14.4 0.65Q8.7 0.65 5.35 -2.95Q2 -6.6 2 -12.25M21.35 -12.35Q21.35 -16.8 19.55 -19.3Q17.75 -21.85 14.5 -21.85Q11.55 -21.85 9.7 -19.2Q7.85 -16.6 7.85 -12.1Q7.85 -7.5 9.6 -5.05Q11.35 -2.6 14.5 -2.6Q17.55 -2.6 19.45 -5.2Q21.35 -7.8 21.35 -12.35" />
</g>
<g id="PathID_86" transform="matrix(0.48308, 0, 0, 0.48308, 241.05, 172.5)" opacity="1">
<path style="fill:#221E20;fill-opacity:1" d="M18.55 -24.6L21 -24.6L23.35 -16.35L20.35 -15.4Q18.8 -18.6 16.55 -20.2Q14.35 -21.85 12 -21.85Q10.4 -21.85 9.35 -21.05Q8.35 -20.3 8.35 -19.3Q8.35 -18.05 9.6 -17.3Q10.85 -16.6 12.6 -15.95L17.35 -14.3Q21.1 -13 22.9 -11.25Q24.7 -9.55 24.7 -6.95Q24.7 -3.85 22 -1.6Q19.3 0.65 15.25 0.65Q11 0.65 8.5 -1.75L8.15 0L5.6 0L2.4 -8.8L5.35 -9.85Q9.9 -2.8 15.3 -2.8Q17.15 -2.8 18.4 -3.8Q19.7 -4.8 19.7 -5.95Q19.7 -7 18.85 -7.75Q18.05 -8.55 15.75 -9.4L10.7 -11.45Q6.7 -12.75 5 -14.35Q3.3 -16 3.3 -18.45Q3.3 -21.2 5.8 -23.2Q8.35 -25.2 11.95 -25.2Q15.95 -25.2 18.05 -23.15L18.55 -24.6" />
</g>
<g id="PathID_87" transform="matrix(0.48308, 0, 0, 0.48308, 253.85, 172.5)" opacity="1">
<path style="fill:#221E20;fill-opacity:1" d="M0.9 -24.6L11.2 -25L11.2 -8.7Q11.2 -3.35 15.8 -3.35Q19.85 -3.35 24.65 -7.25L24.65 -18.45Q24.65 -20.55 24.05 -21.05Q23.5 -21.55 21.8 -21.55L19.5 -21.55L19.5 -24.6L29.85 -25L29.85 -6.2Q29.85 -4.25 30.25 -3.55Q30.7 -2.85 32.8 -2.85L34.1 -2.85L34.1 0.2L24.9 0.65L24.9 -4.1Q22.6 -1.75 20 -0.55Q17.4 0.65 14.5 0.65Q10.6 0.65 8.3 -1.6Q6 -3.9 6 -7.5L6 -18.65Q6 -20.3 5.5 -20.9Q5.05 -21.55 3.65 -21.55L0.9 -21.55L0.9 -24.6" />
</g>
<g id="PathID_88" transform="matrix(0.48308, 0, 0, 0.48308, 270.65, 172.5)" opacity="1">
<path style="fill:#221E20;fill-opacity:1" d="M23.9 -7.8L26.1 -6.1Q21.2 0.65 14.5 0.65Q9.25 0.65 5.65 -3.1Q2.05 -6.85 2.05 -12.35Q2.05 -17.95 5.7 -21.55Q9.4 -25.2 15.15 -25.2Q19.6 -25.2 22.55 -23Q25.55 -20.8 25.55 -18.45Q25.55 -17.2 24.75 -16.4Q23.95 -15.65 22.8 -15.65Q21.75 -15.65 21.2 -16.2Q20.65 -16.8 18.95 -20.1Q18.65 -20.8 17.4 -21.35Q16.2 -21.95 15.05 -21.95Q12 -21.95 9.9 -19.4Q7.85 -16.85 7.85 -12.5Q7.85 -8.25 9.95 -5.6Q12.1 -2.95 15.2 -2.95Q19.7 -2.95 23.9 -7.8" />
</g>
<g id="PathID_89" transform="matrix(0.48308, 0, 0, 0.48308, 299.35, 172.5)" opacity="1">
<path style="fill:#221E20;fill-opacity:1" d="M2 -35.15L16.1 -35.15L16.1 -32.1L14.55 -32.1Q12.95 -32.1 12.35 -31.45Q11.8 -30.85 11.8 -28.3L11.8 -6.25Q11.8 -4.25 12.2 -3.65Q12.65 -3.05 14.55 -3.05L16.1 -3.05L16.1 0L2 0L2 -3.05L3.55 -3.05Q5.2 -3.05 5.7 -3.55Q6.25 -4.05 6.25 -6.25L6.25 -28.8Q6.25 -30.85 5.8 -31.45Q5.4 -32.1 3.55 -32.1L2 -32.1L2 -35.15" />
</g>
<g id="PathID_90" transform="matrix(0.48308, 0, 0, 0.48308, 307.75, 172.5)" opacity="1">
<path style="fill:#221E20;fill-opacity:1" d="M1.85 -20.1L1.85 -23.1Q4.4 -23.35 5.5 -23.7Q6.6 -24.1 8.6 -25.2L11 -25.2L11 -20.55Q12.95 -22.85 15.4 -24Q17.85 -25.2 20.6 -25.2Q22.5 -25.2 24.05 -24.6Q25.6 -24.05 26.65 -23Q27.7 -21.95 28.2 -20.65Q28.75 -19.35 28.75 -16.85L28.75 -6.05Q28.75 -4.4 28.9 -3.9Q29.05 -3.4 29.7 -3.2Q30.35 -3.05 32.9 -3.05L32.9 0L19.25 0L19.25 -3.05L20.4 -3.05Q22.45 -3.05 22.95 -3.55Q23.5 -4.05 23.5 -6.3L23.5 -15.3Q23.5 -18.1 23.05 -19.05Q22.65 -20 21.7 -20.55Q20.75 -21.1 19.3 -21.1Q15.25 -21.1 11.2 -17.4L11.2 -6.3Q11.2 -4.6 11.45 -3.95Q11.75 -3.35 12.25 -3.2Q12.75 -3.05 14.25 -3.05L15.5 -3.05L15.5 0L1.85 0L1.85 -3.05L2.95 -3.05Q4.5 -3.05 5 -3.2Q5.55 -3.4 5.75 -4.05Q6 -4.75 6 -6.65L6 -20.1L1.85 -20.1" />
</g>
<g id="PathID_91" transform="matrix(0.48308, 0, 0, 0.48308, 324.1, 172.5)" opacity="1">
<path style="fill:#221E20;fill-opacity:1" d="M8.3 -32.95L11 -32.95L11 -24.6L18.3 -24.6L18.3 -21.15L11 -21.15L11 -6.9Q11 -4.35 11.75 -3.6Q12.55 -2.9 13.75 -2.9Q15.9 -2.9 19.4 -4.95L19.4 -1.85Q15.8 0.65 12.3 0.65Q10.4 0.65 8.7 -0.3Q7 -1.25 6.45 -2.55Q5.9 -3.85 5.9 -6.6L5.9 -21.15L1.6 -21.15L1.6 -24.1Q4.85 -24.9 6.25 -26.65Q7.65 -28.45 8.3 -32.95" />
</g>
<g id="PathID_92" transform="matrix(0.48308, 0, 0, 0.48308, 333.5, 172.5)" opacity="1">
<path style="fill:#221E20;fill-opacity:1" d="M24.9 -7.3L27.05 -5.6Q24.55 -2.2 22.05 -0.75Q19.55 0.65 16.35 0.65Q12.45 0.65 9.5 -1.05Q6.6 -2.8 5.1 -5.95Q3.65 -9.1 3.65 -12.45Q3.65 -17.85 7.1 -21.5Q10.55 -25.2 16.15 -25.2Q21 -25.2 23.85 -22.35Q26.75 -19.5 26.9 -13.9L9.55 -13.9L9.5 -12.5Q9.5 -8.15 11.5 -5.55Q13.55 -2.95 16.9 -2.95Q19.15 -2.95 20.9 -4.05Q22.7 -5.2 24.9 -7.3M21.3 -17.2Q20.45 -21.9 16.05 -21.9Q13.65 -21.9 12.2 -20.6Q10.75 -19.3 9.9 -17.2L21.3 -17.2" />
</g>
<g id="PathID_93" transform="matrix(0.48308, 0, 0, 0.48308, 346.3, 172.5)" opacity="1">
<path style="fill:#221E20;fill-opacity:1" d="M1.75 -20.1L1.75 -23.1Q5.35 -23.3 8.45 -25.2L11 -25.2L11 -20.6Q11.95 -22.65 14.3 -23.9Q16.65 -25.2 18.65 -25.2Q20.6 -25.2 21.75 -24.2Q22.9 -23.25 22.9 -21.7Q22.9 -20.65 22 -19.85Q21.15 -19.05 20 -19.05Q19.1 -19.05 18.45 -19.55Q17.15 -20.6 16.25 -20.6Q15.25 -20.6 13.75 -19.6Q12.3 -18.65 11.15 -17.25L11.15 -6.15Q11.15 -4.25 11.65 -3.65Q12.2 -3.05 14.1 -3.05L15.5 -3.05L15.5 0L1.75 0L1.75 -3.05L3.3 -3.05Q5.15 -3.05 5.55 -3.7Q6 -4.35 6 -6.15L6 -20.1L1.75 -20.1" />
</g>
<g id="PathID_94" transform="matrix(0.48308, 0, 0, 0.48308, 357.2, 172.5)" opacity="1">
<path style="fill:#221E20;fill-opacity:1" d="M1.85 -20.1L1.85 -23.1Q4.4 -23.35 5.5 -23.7Q6.6 -24.1 8.6 -25.2L11 -25.2L11 -20.55Q12.95 -22.85 15.4 -24Q17.85 -25.2 20.6 -25.2Q22.5 -25.2 24.05 -24.6Q25.6 -24.05 26.65 -23Q27.7 -21.95 28.2 -20.65Q28.75 -19.35 28.75 -16.85L28.75 -6.05Q28.75 -4.4 28.9 -3.9Q29.05 -3.4 29.7 -3.2Q30.35 -3.05 32.9 -3.05L32.9 0L19.25 0L19.25 -3.05L20.4 -3.05Q22.45 -3.05 22.95 -3.55Q23.5 -4.05 23.5 -6.3L23.5 -15.3Q23.5 -18.1 23.05 -19.05Q22.65 -20 21.7 -20.55Q20.75 -21.1 19.3 -21.1Q15.25 -21.1 11.2 -17.4L11.2 -6.3Q11.2 -4.6 11.45 -3.95Q11.75 -3.35 12.25 -3.2Q12.75 -3.05 14.25 -3.05L15.5 -3.05L15.5 0L1.85 0L1.85 -3.05L2.95 -3.05Q4.5 -3.05 5 -3.2Q5.55 -3.4 5.75 -4.05Q6 -4.75 6 -6.65L6 -20.1L1.85 -20.1" />
</g>
<g id="PathID_95" transform="matrix(0.48308, 0, 0, 0.48308, 373.5, 172.5)" opacity="1">
<path style="fill:#221E20;fill-opacity:1" d="M19.4 -14.85L19.4 -17.35Q19.4 -21.9 14.1 -21.9Q11.75 -21.9 10.65 -21Q9.55 -20.1 9.1 -17.65Q8.85 -16.45 8.1 -15.75Q7.4 -15.05 6.25 -15.05Q5.05 -15.05 4.3 -15.9Q3.6 -16.75 3.6 -18.05Q3.6 -20.85 6.65 -23Q9.75 -25.2 14.8 -25.2Q19.9 -25.2 22.3 -23.05Q24.7 -20.9 24.7 -16.4L24.7 -6.7Q24.7 -4.55 24.9 -3.85Q25.1 -3.2 25.6 -2.85Q26.15 -2.5 26.85 -2.5Q27.65 -2.5 29.9 -3.05L29.9 0Q27.55 0.65 25.8 0.65Q20.5 0.65 19.8 -3.5Q17.85 -1.45 15.35 -0.4Q12.9 0.65 10 0.65Q6.55 0.65 4.25 -1.25Q1.95 -3.2 1.95 -5.95Q1.95 -9.6 5.5 -11.65Q9.05 -13.75 19.4 -14.85M19.4 -11.75Q11.25 -10.65 9.35 -9.4Q7.45 -8.15 7.45 -6.4Q7.45 -5.05 8.5 -4.1Q9.6 -3.2 11.15 -3.2Q14.55 -3.2 19.4 -6.6L19.4 -11.75" />
</g>
<g id="PathID_96" transform="matrix(0.48308, 0, 0, 0.48308, 387.85, 172.5)" opacity="1">
<path style="fill:#221E20;fill-opacity:1" d="M8.3 -32.95L11 -32.95L11 -24.6L18.3 -24.6L18.3 -21.15L11 -21.15L11 -6.9Q11 -4.35 11.75 -3.6Q12.55 -2.9 13.75 -2.9Q15.9 -2.9 19.4 -4.95L19.4 -1.85Q15.8 0.65 12.3 0.65Q10.4 0.65 8.7 -0.3Q7 -1.25 6.45 -2.55Q5.9 -3.85 5.9 -6.6L5.9 -21.15L1.6 -21.15L1.6 -24.1Q4.85 -24.9 6.25 -26.65Q7.65 -28.45 8.3 -32.95" />
</g>
<g id="PathID_97" transform="matrix(0.48308, 0, 0, 0.48308, 397.2, 172.5)" opacity="1">
<path style="fill:#221E20;fill-opacity:1" d="M5 -32.45Q5 -33.85 5.95 -34.8Q6.95 -35.75 8.35 -35.75Q9.75 -35.75 10.7 -34.75Q11.7 -33.8 11.7 -32.45Q11.7 -31.05 10.7 -30.05Q9.75 -29.1 8.35 -29.1Q6.95 -29.1 5.95 -30.05Q5 -31.05 5 -32.45M1.6 -20.1L1.6 -23.05Q5.7 -23.6 8.5 -25.2L11 -25.2L11 -5.05Q11 -3.65 11.6 -3.35Q12.2 -3.05 13.5 -3.05L15.2 -3.05L15.2 0L1.6 0L1.6 -3.05L3.1 -3.05Q4.95 -3.05 5.4 -3.55Q5.85 -4.05 5.85 -6.2L5.85 -20.1L1.6 -20.1" />
</g>
<g id="PathID_98" transform="matrix(0.48308, 0, 0, 0.48308, 404.65, 172.5)" opacity="1">
<path style="fill:#221E20;fill-opacity:1" d="M2 -12.25Q2 -18 5.5 -21.6Q9 -25.2 14.7 -25.2Q20.3 -25.2 23.7 -21.65Q27.15 -18.1 27.15 -12.3Q27.15 -6.5 23.65 -2.9Q20.2 0.65 14.4 0.65Q8.7 0.65 5.35 -2.95Q2 -6.6 2 -12.25M21.35 -12.35Q21.35 -16.8 19.55 -19.3Q17.75 -21.85 14.5 -21.85Q11.55 -21.85 9.7 -19.2Q7.85 -16.6 7.85 -12.1Q7.85 -7.5 9.6 -5.05Q11.35 -2.6 14.5 -2.6Q17.55 -2.6 19.45 -5.2Q21.35 -7.8 21.35 -12.35" />
</g>
<g id="PathID_99" transform="matrix(0.48308, 0, 0, 0.48308, 418.5, 172.5)" opacity="1">
<path style="fill:#221E20;fill-opacity:1" d="M1.85 -20.1L1.85 -23.1Q4.4 -23.35 5.5 -23.7Q6.6 -24.1 8.6 -25.2L11 -25.2L11 -20.55Q12.95 -22.85 15.4 -24Q17.85 -25.2 20.6 -25.2Q22.5 -25.2 24.05 -24.6Q25.6 -24.05 26.65 -23Q27.7 -21.95 28.2 -20.65Q28.75 -19.35 28.75 -16.85L28.75 -6.05Q28.75 -4.4 28.9 -3.9Q29.05 -3.4 29.7 -3.2Q30.35 -3.05 32.9 -3.05L32.9 0L19.25 0L19.25 -3.05L20.4 -3.05Q22.45 -3.05 22.95 -3.55Q23.5 -4.05 23.5 -6.3L23.5 -15.3Q23.5 -18.1 23.05 -19.05Q22.65 -20 21.7 -20.55Q20.75 -21.1 19.3 -21.1Q15.25 -21.1 11.2 -17.4L11.2 -6.3Q11.2 -4.6 11.45 -3.95Q11.75 -3.35 12.25 -3.2Q12.75 -3.05 14.25 -3.05L15.5 -3.05L15.5 0L1.85 0L1.85 -3.05L2.95 -3.05Q4.5 -3.05 5 -3.2Q5.55 -3.4 5.75 -4.05Q6 -4.75 6 -6.65L6 -20.1L1.85 -20.1" />
</g>
<g id="PathID_100" transform="matrix(0.48308, 0, 0, 0.48308, 434.85, 172.5)" opacity="1">
<path style="fill:#221E20;fill-opacity:1" d="M19.4 -14.85L19.4 -17.35Q19.4 -21.9 14.1 -21.9Q11.75 -21.9 10.65 -21Q9.55 -20.1 9.1 -17.65Q8.85 -16.45 8.1 -15.75Q7.4 -15.05 6.25 -15.05Q5.05 -15.05 4.3 -15.9Q3.6 -16.75 3.6 -18.05Q3.6 -20.85 6.65 -23Q9.75 -25.2 14.8 -25.2Q19.9 -25.2 22.3 -23.05Q24.7 -20.9 24.7 -16.4L24.7 -6.7Q24.7 -4.55 24.9 -3.85Q25.1 -3.2 25.6 -2.85Q26.15 -2.5 26.85 -2.5Q27.65 -2.5 29.9 -3.05L29.9 0Q27.55 0.65 25.8 0.65Q20.5 0.65 19.8 -3.5Q17.85 -1.45 15.35 -0.4Q12.9 0.65 10 0.65Q6.55 0.65 4.25 -1.25Q1.95 -3.2 1.95 -5.95Q1.95 -9.6 5.5 -11.65Q9.05 -13.75 19.4 -14.85M19.4 -11.75Q11.25 -10.65 9.35 -9.4Q7.45 -8.15 7.45 -6.4Q7.45 -5.05 8.5 -4.1Q9.6 -3.2 11.15 -3.2Q14.55 -3.2 19.4 -6.6L19.4 -11.75" />
</g>
<g id="PathID_101" transform="matrix(0.48308, 0, 0, 0.48308, 449.15, 172.5)" opacity="1">
<path style="fill:#221E20;fill-opacity:1" d="M1.55 -31.85L1.55 -34.8Q5.3 -35.15 8.4 -36.9L10.85 -36.9L10.85 -6.25Q10.85 -4.2 11.35 -3.6Q11.9 -3.05 13.9 -3.05L15.2 -3.05L15.2 0L1.55 0L1.55 -3.05L3.3 -3.05Q4.65 -3.05 5.15 -3.6Q5.7 -4.2 5.7 -6.45L5.7 -31.85L1.55 -31.85" />
</g>
<g id="PathID_102" transform="matrix(0.48308, 0, 0, 0.48308, 464.5, 172.5)" opacity="1">
<path style="fill:#221E20;fill-opacity:1" d="M3.9 -36.3L6.4 -36.3L6.65 -35.15L25.4 -35.15L25.6 -36.3L28.25 -36.3L31.95 -25.5L28.9 -24.45Q27.25 -28.6 25.5 -30.15Q23.8 -31.75 20.5 -31.75Q19.25 -31.75 19.05 -31.55Q18.85 -31.4 18.85 -30.05L18.85 -6.35Q18.85 -4 19.6 -3.5Q20.4 -3.05 23.2 -3.05L23.2 0L8.95 0L8.95 -3.05Q11.4 -3.05 12.1 -3.25Q12.85 -3.5 13.05 -4.05Q13.25 -4.6 13.25 -6.15L13.25 -30.4Q13.25 -31.4 13.1 -31.55Q12.95 -31.75 11.95 -31.75Q8.15 -31.75 6.55 -30.15Q4.95 -28.55 3.25 -24.45L0.25 -25.45L3.9 -36.3" />
</g>
<g id="PathID_103" transform="matrix(0.48308, 0, 0, 0.48308, 479.85, 172.5)" opacity="1">
<path style="fill:#221E20;fill-opacity:1" d="M1.75 -20.1L1.75 -23.1Q5.35 -23.3 8.45 -25.2L11 -25.2L11 -20.6Q11.95 -22.65 14.3 -23.9Q16.65 -25.2 18.65 -25.2Q20.6 -25.2 21.75 -24.2Q22.9 -23.25 22.9 -21.7Q22.9 -20.65 22 -19.85Q21.15 -19.05 20 -19.05Q19.1 -19.05 18.45 -19.55Q17.15 -20.6 16.25 -20.6Q15.25 -20.6 13.75 -19.6Q12.3 -18.65 11.15 -17.25L11.15 -6.15Q11.15 -4.25 11.65 -3.65Q12.2 -3.05 14.1 -3.05L15.5 -3.05L15.5 0L1.75 0L1.75 -3.05L3.3 -3.05Q5.15 -3.05 5.55 -3.7Q6 -4.35 6 -6.15L6 -20.1L1.75 -20.1" />
</g>
<g id="PathID_104" transform="matrix(0.48308, 0, 0, 0.48308, 490.75, 172.5)" opacity="1">
<path style="fill:#221E20;fill-opacity:1" d="M19.4 -14.85L19.4 -17.35Q19.4 -21.9 14.1 -21.9Q11.75 -21.9 10.65 -21Q9.55 -20.1 9.1 -17.65Q8.85 -16.45 8.1 -15.75Q7.4 -15.05 6.25 -15.05Q5.05 -15.05 4.3 -15.9Q3.6 -16.75 3.6 -18.05Q3.6 -20.85 6.65 -23Q9.75 -25.2 14.8 -25.2Q19.9 -25.2 22.3 -23.05Q24.7 -20.9 24.7 -16.4L24.7 -6.7Q24.7 -4.55 24.9 -3.85Q25.1 -3.2 25.6 -2.85Q26.15 -2.5 26.85 -2.5Q27.65 -2.5 29.9 -3.05L29.9 0Q27.55 0.65 25.8 0.65Q20.5 0.65 19.8 -3.5Q17.85 -1.45 15.35 -0.4Q12.9 0.65 10 0.65Q6.55 0.65 4.25 -1.25Q1.95 -3.2 1.95 -5.95Q1.95 -9.6 5.5 -11.65Q9.05 -13.75 19.4 -14.85M19.4 -11.75Q11.25 -10.65 9.35 -9.4Q7.45 -8.15 7.45 -6.4Q7.45 -5.05 8.5 -4.1Q9.6 -3.2 11.15 -3.2Q14.55 -3.2 19.4 -6.6L19.4 -11.75" />
</g>
<g id="PathID_105" transform="matrix(0.48308, 0, 0, 0.48308, 505.05, 172.5)" opacity="1">
<path style="fill:#221E20;fill-opacity:1" d="M17.05 -31.8L17.05 -34.8Q20.5 -35.05 23.95 -36.9L26.5 -36.9L26.5 -6.7Q26.5 -4.75 26.65 -4.05Q26.85 -3.4 27.3 -3.2Q27.75 -3.05 29.15 -3.05L30.75 -3.05L30.75 0L21.15 0.45L21.15 -3.5Q17.5 0.65 12.75 0.65Q8.15 0.65 5.05 -3.05Q2 -6.75 2 -12Q2 -17.55 5.35 -21.35Q8.75 -25.2 13.75 -25.2Q18.8 -25.2 21.15 -21.95L21.15 -31.8L17.05 -31.8M21.15 -6.6L21.15 -15.7Q21.15 -18.7 19.1 -20.1Q17.1 -21.55 15 -21.55Q11.9 -21.55 9.8 -19Q7.75 -16.5 7.75 -12.2Q7.75 -8.15 9.6 -5.7Q11.5 -3.25 14 -3.25Q15.5 -3.25 17.45 -4.15Q19.45 -5.1 21.15 -6.6" />
</g>
<g id="PathID_106" transform="matrix(0.48308, 0, 0, 0.48308, 520.4, 172.5)" opacity="1">
<path style="fill:#221E20;fill-opacity:1" d="M24.9 -7.3L27.05 -5.6Q24.55 -2.2 22.05 -0.75Q19.55 0.65 16.35 0.65Q12.45 0.65 9.5 -1.05Q6.6 -2.8 5.1 -5.95Q3.65 -9.1 3.65 -12.45Q3.65 -17.85 7.1 -21.5Q10.55 -25.2 16.15 -25.2Q21 -25.2 23.85 -22.35Q26.75 -19.5 26.9 -13.9L9.55 -13.9L9.5 -12.5Q9.5 -8.15 11.5 -5.55Q13.55 -2.95 16.9 -2.95Q19.15 -2.95 20.9 -4.05Q22.7 -5.2 24.9 -7.3M21.3 -17.2Q20.45 -21.9 16.05 -21.9Q13.65 -21.9 12.2 -20.6Q10.75 -19.3 9.9 -17.2L21.3 -17.2" />
</g>
<g id="PathID_107" transform="matrix(0.48308, 0, 0, 0.48308, 541.2, 172.5)" opacity="1">
<path style="fill:#221E20;fill-opacity:1" d="M29.75 -35.15L32.25 -35.15L35.5 -22.95L32.4 -22.1Q30.25 -27.4 27.55 -29.75Q24.9 -32.15 20.8 -32.15Q15.8 -32.15 12.4 -28.15Q9.05 -24.15 9.05 -17.95Q9.05 -11.5 12.65 -7.45Q16.25 -3.4 21.4 -3.4Q24.55 -3.4 27.8 -5.2Q31.1 -7 33.9 -10.45L36.5 -8.8Q33.45 -3.95 29.3 -1.65Q25.15 0.65 20.25 0.65Q12.8 0.65 7.75 -4.55Q2.7 -9.8 2.7 -17.45Q2.7 -22.35 5.05 -26.6Q7.45 -30.85 11.55 -33.3Q15.7 -35.75 20.4 -35.75Q25.4 -35.75 29.05 -32.9L29.75 -35.15" />
</g>
<g id="PathID_108" transform="matrix(0.48308, 0, 0, 0.48308, 559.5, 172.5)" opacity="1">
<path style="fill:#221E20;fill-opacity:1" d="M2 -12.25Q2 -18 5.5 -21.6Q9 -25.2 14.7 -25.2Q20.3 -25.2 23.7 -21.65Q27.15 -18.1 27.15 -12.3Q27.15 -6.5 23.65 -2.9Q20.2 0.65 14.4 0.65Q8.7 0.65 5.35 -2.95Q2 -6.6 2 -12.25M21.35 -12.35Q21.35 -16.8 19.55 -19.3Q17.75 -21.85 14.5 -21.85Q11.55 -21.85 9.7 -19.2Q7.85 -16.6 7.85 -12.1Q7.85 -7.5 9.6 -5.05Q11.35 -2.6 14.5 -2.6Q17.55 -2.6 19.45 -5.2Q21.35 -7.8 21.35 -12.35" />
</g>
<g id="PathID_109" transform="matrix(0.48308, 0, 0, 0.48308, 573.35, 172.5)" opacity="1">
<path style="fill:#221E20;fill-opacity:1" d="M4.95 -3.15Q4.95 -4.65 6 -5.65Q7.05 -6.7 8.5 -6.7Q10 -6.7 11.05 -5.65Q12.1 -4.6 12.1 -3.15Q12.1 -1.65 11.05 -0.6Q10 0.45 8.5 0.45Q7.05 0.45 6 -0.55Q4.95 -1.6 4.95 -3.15" />
</g>
<g id="PathID_110" transform="matrix(0.48308, 0, 0, 0.48308, 581.3, 172.5)" opacity="1">
<path style="fill:#221E20;fill-opacity:1" d="M5.85 8.9L4.1 6.75Q7 4.15 8.15 2.45Q9.3 0.75 9.15 -0.35Q8.75 0 7.85 0Q6.5 0 5.7 -0.9Q4.9 -1.85 4.9 -3.15Q4.9 -4.6 5.9 -5.55Q6.95 -6.55 8.5 -6.55Q10.2 -6.55 11.55 -5.05Q12.9 -3.55 12.9 -1.5Q12.9 1.3 11.4 3.55Q9.9 5.8 5.85 8.9" />
</g>
<g id="PathID_111" transform="matrix(0.48308, 0, 0, 0.48308, 597.15, 172.5)" opacity="1">
<path style="fill:#221E20;fill-opacity:1" d="M2.3 -35.15L16.6 -35.15L16.6 -32.1L14.85 -32.1Q13.35 -32.1 12.75 -31.75Q12.2 -31.4 12.2 -29.7L12.2 -5.85Q12.2 -4.05 12.4 -3.8Q12.65 -3.6 14.45 -3.6L16.25 -3.6Q20.65 -3.6 23.15 -5.5Q25.65 -7.45 27.9 -12.4L30.9 -11.45L26.95 0L2.3 0L2.3 -3.05L3.85 -3.05Q5.6 -3.05 6.1 -3.45Q6.6 -3.9 6.6 -5.85L6.6 -29.1Q6.6 -31 6.2 -31.55Q5.8 -32.1 3.85 -32.1L2.3 -32.1L2.3 -35.15" />
</g>
<g id="PathID_112" transform="matrix(0.48308, 0, 0, 0.48308, 612, 172.5)" opacity="1">
<path style="fill:#221E20;fill-opacity:1" d="M8.3 -32.95L11 -32.95L11 -24.6L18.3 -24.6L18.3 -21.15L11 -21.15L11 -6.9Q11 -4.35 11.75 -3.6Q12.55 -2.9 13.75 -2.9Q15.9 -2.9 19.4 -4.95L19.4 -1.85Q15.8 0.65 12.3 0.65Q10.4 0.65 8.7 -0.3Q7 -1.25 6.45 -2.55Q5.9 -3.85 5.9 -6.6L5.9 -21.15L1.6 -21.15L1.6 -24.1Q4.85 -24.9 6.25 -26.65Q7.65 -28.45 8.3 -32.95" />
</g>
<g id="PathID_113" transform="matrix(0.48308, 0, 0, 0.48308, 621.35, 172.5)" opacity="1">
<path style="fill:#221E20;fill-opacity:1" d="M17.05 -31.8L17.05 -34.8Q20.5 -35.05 23.95 -36.9L26.5 -36.9L26.5 -6.7Q26.5 -4.75 26.65 -4.05Q26.85 -3.4 27.3 -3.2Q27.75 -3.05 29.15 -3.05L30.75 -3.05L30.75 0L21.15 0.45L21.15 -3.5Q17.5 0.65 12.75 0.65Q8.15 0.65 5.05 -3.05Q2 -6.75 2 -12Q2 -17.55 5.35 -21.35Q8.75 -25.2 13.75 -25.2Q18.8 -25.2 21.15 -21.95L21.15 -31.8L17.05 -31.8M21.15 -6.6L21.15 -15.7Q21.15 -18.7 19.1 -20.1Q17.1 -21.55 15 -21.55Q11.9 -21.55 9.8 -19Q7.75 -16.5 7.75 -12.2Q7.75 -8.15 9.6 -5.7Q11.5 -3.25 14 -3.25Q15.5 -3.25 17.45 -4.15Q19.45 -5.1 21.15 -6.6" />
</g>
<g id="PathID_114" transform="matrix(0.48308, 0, 0, 0.48308, 636.7, 172.5)" opacity="1">
<path style="fill:#221E20;fill-opacity:1" d="M4.95 -3.15Q4.95 -4.65 6 -5.65Q7.05 -6.7 8.5 -6.7Q10 -6.7 11.05 -5.65Q12.1 -4.6 12.1 -3.15Q12.1 -1.65 11.05 -0.6Q10 0.45 8.5 0.45Q7.05 0.45 6 -0.55Q4.95 -1.6 4.95 -3.15" />
</g>
</svg>
