<?xml version="1.0" encoding="utf-8"?>
<svg version="1.1" id="Layer_1"
xmlns="http://www.w3.org/2000/svg"
xmlns:xlink="http://www.w3.org/1999/xlink"
width="717px" height="400px"
xml:space="preserve">
<g id="PathID_39" transform="matrix(0.735432, 0, 0, 0.735432, 44.75, 89.65)" opacity="1">
<path style="fill:#0366B5;fill-opacity:1" d="M149.4 27.45Q151.1 38.1 148.25 51.75Q145.6 64.65 139.4 77.75Q133.3 90.7 125.3 100.75L130.95 110.95L128.5 109.35L125.3 112.45L120 106.75L119.25 107.6Q116.1 105.5 107.85 97.95L105.95 98.7L106.85 97.2L102.55 92.95L100.75 94.35L100.7 92.2L91.1 82.9L89 84.45L89.6 81.85L82.35 73.2L69.15 71.3L65.8 75L66.5 70.9L57.1 69.55L54.65 68L52.7 68.85L46.75 68.15L45.2 70.15L44.8 67.7L30.4 65.3L27.95 66.05L28.45 64.75L23.05 63.75L24.05 61.4L7.6 58.75L4.85 58.8L0 54.5L1.3 52.9L3.1 54.1L6.8 53.2L8.75 53.7L63.05 51.4L71 40.6L75.35 36.4L77.2 35.65Q80.2 36.9 81.2 37.85Q82.55 39.15 82.8 42Q80.65 46.7 75.85 51L85.5 51.6L88.35 50.7L110.6 24.55L114.05 22.05L115.95 21.3L117.3 21.95L119.45 20.9Q125.9 18.05 128.4 19.25Q131.5 20.75 127.2 28.1L103.6 55.05L102.95 57.7L104.05 57.7L112.55 76.5L113.55 73.95L122 65.5Q124.75 65.55 125.75 66.65Q126.45 67.35 127.45 70.3L124.45 75L120.4 79.95L115.9 83.6L123.4 97.35L127 92.85Q132.15 85.25 136.15 73.9Q140.35 61.9 141.55 50.3Q144.55 21.65 128.9 12.95Q111.05 3.15 86.9 14.55Q64.55 25.1 49 47.2L43.5 47.4Q52.25 33.9 64.55 22.9Q77 11.85 90.35 5.8Q104.45 -0.5 116.9 0.05Q130.45 0.7 140.35 9.5Q147.5 15.85 149.4 27.45M7.95 78.25L39.6 77L63.25 77.9Q74.2 80 82.75 87.2Q92.1 95 101.7 111.3L101.85 111.3L103.4 114.1L105.25 116.9Q87.95 125.45 71.8 124.45Q55.25 123.3 46.5 112.4Q40.75 105.4 38.25 96.25L41.95 96.75L45.45 96.95Q47.7 102.15 51.7 106.75Q57.2 113.55 66.1 115.95Q74.15 118.1 84.35 116.45Q79.5 103.1 71.35 95.85Q64.3 89.65 53.5 87Q45.9 85.2 31.55 84.35L6.5 82.45Q2.15 79 7.95 78.25" />
</g>
<g id="PathID_40" transform="matrix(0.842744, 0, 0, 0.842744, 253.75, 134.15)" opacity="1">
<path style="fill:#221E20;fill-opacity:1" d="M45.8 -29Q46.4 -29 47 -28.65Q47.6 -28.3 47.6 -27.6Q47.6 -26.35 45.65 -24.2Q44.85 -23.35 43.7 -20.85Q42.55 -18.4 42.55 -17.65Q42.55 -16.95 42.8 -16.45Q43.1 -15.95 43.1 -15.5Q43.1 -15.1 42.55 -14.55Q42 -14 40.75 -14Q39.55 -14 37.7 -14.25Q35.9 -14.55 32.75 -14.55L29.05 -14.5Q28.45 -14.45 28.1 -14Q27.8 -13.6 27.8 -12.85L27.85 -7.15Q27.85 -0.25 27.55 0.5Q27.25 1.25 26.25 1.75Q25.3 2.25 24.65 2.25Q24 2.25 23.8 1.8Q23.6 1.35 23.6 -0.75Q23.6 -2.9 23.75 -6.85L24 -13.15Q24 -14.25 22.75 -14.25Q21 -14.25 15.7 -13.25Q10.4 -12.3 6.3 -10.05Q5.85 -9.8 5.5 -9.8Q4.75 -9.8 4.75 -10.7Q4.75 -11.65 5.45 -12.95Q6.2 -14.25 7.3 -15.05Q8.4 -15.9 8.9 -17.7Q9.45 -19.55 9.45 -20.8Q9.45 -23.3 7.8 -24Q6.2 -24.75 5.6 -25.5Q5 -26.25 5 -26.85Q5 -27.5 5.35 -27.7Q5.75 -27.9 7.65 -28.15L11.15 -28.65Q16.75 -29.9 22.7 -30.3Q24.05 -30.4 24.4 -31.45Q24.9 -33.25 25.95 -33.25Q27.05 -33.25 27.85 -31.35Q28.05 -30.8 28.4 -30.65Q28.8 -30.5 30 -30.5Q36.05 -30.5 39.4 -29.5Q42.75 -28.55 43.65 -28.55Q44.55 -28.55 44.95 -28.75Q45.4 -29 45.8 -29M37.9 -18.6Q38.75 -18.6 39.05 -19.15L40.15 -21.5Q41 -23.3 41 -24.15Q41 -25.05 40.3 -25.45Q39.65 -25.9 36.55 -26.1Q33.5 -26.35 31.4 -26.35L28.9 -26.3Q28.5 -26.3 28.2 -26Q27.95 -25.75 27.85 -25.1L27.8 -20.5Q27.8 -19.5 28.2 -19.2Q28.6 -18.95 29.25 -19L31.6 -19.05Q33.35 -19.05 35.15 -18.85L37.9 -18.6M13.35 -17.35L13.65 -17.4Q17.8 -18.25 22.65 -18.65Q23 -18.65 23.6 -19Q24.25 -19.35 24.35 -20.1Q24.45 -20.85 24.45 -24.4Q24.45 -25.25 24.25 -25.6Q24.05 -25.95 23.3 -25.95Q22.6 -25.95 20.35 -25.6L16.2 -24.85Q14.3 -24.45 13.9 -24.2Q13.55 -24 13.2 -23.55Q12.85 -23.1 12.7 -22.75Q12.6 -22.45 12.6 -21.35Q12.6 -20.25 12.4 -18.45Q12.4 -17.35 13.35 -17.35" />
</g>
<g id="PathID_41" transform="matrix(0.842744, 0, 0, 0.842744, 334.15, 134.15)" opacity="1">
<path style="fill:#221E20;fill-opacity:1" d="M32.2 -8.15Q31.8 -9.2 31.2 -9.2Q30.6 -9.2 28.6 -6.3Q26.65 -3.4 24.5 -1.1Q22.4 1.15 22.05 1.15Q21.7 1.15 21.4 0.75Q21.15 0.35 21.15 0.1Q21.15 -0.65 23.65 -5.1Q26.2 -9.55 28.8 -12.7Q29.35 -13.45 29.35 -13.95Q29.35 -14.45 28.95 -15.4Q28.6 -16.35 27.8 -16.35Q26.9 -16.35 24.95 -14.3Q23 -12.3 21.7 -10Q19.25 -5.85 17.9 -4.3Q16.6 -2.8 16.05 -2.8Q15.5 -2.8 15.5 -3.45Q15.5 -4.15 16.35 -6.25Q17.2 -8.35 20.7 -13.75Q21.45 -14.8 21.45 -15.2Q21.45 -15.6 21.05 -15.6Q20.7 -15.6 19.9 -15.4Q19.1 -15.25 18.3 -15.25Q16.15 -15.25 16.15 -17.25Q16.15 -18.35 16.85 -19.3Q17.6 -20.25 18.45 -20.25Q18.75 -20.25 19.1 -20.05Q19.5 -19.9 19.8 -19.9Q20.15 -19.9 20.65 -20.15Q21.15 -20.45 22.45 -20.9Q23.8 -21.35 24.95 -21.55Q26.1 -21.8 26.1 -22.15Q26.1 -22.5 25.7 -23.35Q25.3 -24.25 24.8 -24.25Q23.9 -24.25 22.15 -23.7Q20.45 -23.15 18.7 -23.15Q16.95 -23.15 16 -23.85Q15.05 -24.55 15.05 -25.8Q15.05 -27.1 15.65 -27.8Q16.3 -28.5 17.2 -28.5Q17.55 -28.5 17.85 -28.3Q18.2 -28.15 18.7 -28.15Q19.95 -28.15 21.6 -28.85Q23.3 -29.6 23.1 -30.75Q22.95 -31.5 22.95 -32.2Q22.95 -34.4 24.5 -34.4Q25.1 -34.4 25.6 -33.65Q26.1 -32.9 26.85 -30.75Q27.25 -29.45 28.6 -29.45L30.1 -29.5L32.55 -29.65Q33.55 -29.7 33.7 -29.8L34.1 -30.15Q34.35 -30.4 34.6 -30.9L35.25 -32.35Q35.6 -33.25 36.45 -33.25Q37.6 -33.25 38.1 -32.75Q38.6 -32.25 39.05 -30.15Q39.15 -29.6 39.35 -29.4Q39.6 -29.25 41.7 -28.8Q43.8 -28.4 44.65 -27.95Q45.55 -27.5 45.55 -26.95Q45.55 -26.45 44.2 -25.4Q42.85 -24.4 40.4 -24.4Q39.7 -24.4 38.65 -24.55Q37.6 -24.7 34.45 -24.7Q31.3 -24.7 30.25 -24.6Q29.2 -24.5 29.2 -24.1Q29.2 -23.7 29.65 -23.1Q30.1 -22.5 30.65 -22.35Q31.9 -22.05 31.9 -21.05Q31.9 -20.6 31.6 -20.15Q31.35 -19.75 31.35 -19.3Q31.35 -18.85 31.9 -17.8Q32.45 -16.8 32.75 -16.8Q33.05 -16.8 33.35 -17.1Q35.15 -18.65 37.6 -20.25Q40.1 -21.9 40.85 -21.9Q41.65 -21.9 41.65 -20.25Q41.65 -19.05 40.9 -18.35Q40.2 -17.7 37.65 -16.25Q37.2 -15.95 36.15 -15Q35.15 -14.05 34.9 -13.7Q34.7 -13.4 34.7 -13.15Q34.7 -12.25 36.85 -9.45Q39 -6.7 42.6 -4.25Q46.2 -1.8 49.25 -1.8Q49.8 -1.8 49.8 -1.6Q49.8 -1.15 47.4 0.9Q45 3 41.25 3Q39 3 37.9 2.35Q36.8 1.7 35.85 0.35Q34.9 -0.95 33.7 -4.05L32.2 -8.15M11.6 -28.85Q12.8 -28.85 13.6 -26.65Q14.45 -24.45 14.45 -21.15Q14.45 -17.9 13.2 -11.7Q11.95 -5.5 9.9 -3.7Q7.9 -1.9 6.85 -1.9Q5.8 -1.9 5.25 -2.9Q4.7 -3.9 4.7 -5.6Q4.7 -7.35 5.1 -7.6Q5.35 -7.75 5.6 -8.45Q5.85 -9.2 5.95 -9.8Q6.15 -11.25 6.6 -11.25Q6.8 -11.25 7.05 -10.75Q7.3 -10.25 7.65 -10.25Q8.05 -10.25 8.45 -10.8Q8.85 -11.35 9.65 -13.25Q10.45 -15.2 10.85 -17.85Q11.3 -20.5 11.3 -22Q11.3 -23.55 10.8 -24.95Q10.35 -26.35 10.35 -27.15Q10.35 -27.95 10.7 -28.4Q11.1 -28.85 11.6 -28.85" />
</g>
<g id="PathID_42" transform="matrix(0.842744, 0, 0, 0.842744, 414.5, 134.15)" opacity="1">
<path style="fill:#221E20;fill-opacity:1" d="M45.25 -30.35Q46.5 -30.35 46.5 -28.3Q46.5 -27.8 46.25 -27.1L45.05 -24.5Q44.5 -23.5 44.25 -21.2Q44.05 -18.95 44.05 -15.6Q44.05 -12.25 44.35 -8.6Q44.7 -5 44.7 -2.85Q44.7 -0.7 44.1 0.35Q43.55 1.45 43.15 1.45Q42.8 1.45 41.25 0.3Q39.7 -0.85 38.1 -0.9L34.15 -1.3Q31 -1.7 25.35 -1.7Q17.8 -1.7 15.75 -1Q11.7 0.5 9.85 0.5Q9.25 0.5 8.8 0.35L8.3 0.25Q8.05 0.25 7.6 1.05Q7.2 1.9 6.85 1.9Q6.55 1.9 6.2 0.8Q5.85 -0.3 5.85 -2.15Q5.85 -4 6.35 -6.8Q6.9 -9.6 6.9 -17.3Q6.9 -21.85 6.6 -22.55Q5.85 -24.35 5.6 -25.25Q5.4 -26.15 5.4 -27.3Q5.4 -30.6 6.5 -30.6Q6.8 -30.6 7.1 -30.4Q8.6 -29.55 9.45 -29.55L10.85 -29.6Q15.65 -30.3 19.85 -30.65Q24.05 -31 32.2 -31Q40.4 -31 42.7 -30.3Q43.3 -30.1 43.65 -30.1L44.45 -30.2Q44.95 -30.35 45.25 -30.35M41.3 -12.15Q41.3 -19.1 41.95 -22.2Q42.25 -23.8 42.25 -24.85Q42.25 -25.9 41.25 -26.3Q40.3 -26.75 37.3 -27.1Q34.3 -27.5 30.4 -27.5Q24.1 -27.5 18.75 -26.9Q13.45 -26.3 11.05 -25.4Q10.45 -25.25 10.1 -24.75Q9.8 -24.3 9.7 -23.15Q9.5 -20.3 9.3 -10.15L9.05 -4.5Q9.05 -3.9 9.2 -3.7Q9.35 -3.5 9.95 -3.5Q10.55 -3.5 12.3 -3.95Q20.55 -6.25 28.65 -6.25Q33.5 -6.25 36.9 -5.4Q38.05 -5.1 39.5 -5.1Q41 -5.1 41.25 -5.45Q41.55 -5.85 41.55 -6.7Q41.55 -7.6 41.4 -8.65Q41.3 -9.75 41.3 -12.15M40.2 -23.75Q40.2 -23.35 39.35 -22.25Q38.5 -21.2 36.7 -21.2L34.25 -21.35Q32.35 -21.55 29.75 -21.55Q27.15 -21.55 26.55 -21.35Q26 -21.2 26 -20.65Q26 -19.8 26.3 -19.55Q26.65 -19.35 27.9 -19.35L30.6 -19.4Q33.8 -19.4 36.3 -19Q38.8 -18.6 38.8 -17.95Q38.8 -17.65 38.4 -16.75Q38.05 -15.85 37.45 -15.55Q36.85 -15.3 35.25 -15.2Q33.65 -15.15 33.3 -14.9Q32.95 -14.65 32.95 -13.8Q32.95 -13 33.3 -12.8Q33.7 -12.65 34.65 -12.55Q35.65 -12.5 36.45 -12.25Q37.25 -12 37.55 -12Q37.85 -12 38.1 -12.1Q38.4 -12.25 38.65 -12.25Q39.35 -12.25 39.35 -11.15Q39.35 -10.1 38.7 -8.95Q38.1 -7.8 36.15 -7.8Q35.2 -7.8 33.4 -8.1Q31.65 -8.45 28.15 -8.45Q24.65 -8.45 21.1 -7.95Q17.55 -7.45 15.7 -6.75Q13.85 -6.05 13.2 -6.05Q11.6 -6.05 11.6 -9.4Q11.6 -10.9 12.5 -10.9Q12.9 -10.9 13.2 -10.7Q13.5 -10.5 14.35 -10.5Q15.2 -10.5 15.6 -10.7Q17.35 -11.35 20.4 -11.9Q21.9 -12.15 22.3 -12.65Q22.75 -13.15 22.75 -14.35Q22.75 -15.05 22 -15.05Q21.25 -15.05 19.25 -14.65Q17.3 -14.3 16.25 -13.85Q15.2 -13.4 14.15 -13.4Q13.1 -13.4 12.4 -13.85Q11.7 -14.3 11.7 -14.9Q11.7 -15.55 12.3 -16.4Q12.9 -17.25 13.2 -17.25Q13.5 -17.25 13.7 -17.1L14.1 -17Q14.3 -17 15.05 -17.35Q17.45 -18.25 20.2 -18.65Q21.75 -18.9 22.2 -19.15Q22.7 -19.4 22.7 -19.95Q22.7 -20.5 22.5 -20.7Q22.3 -20.9 21.65 -20.9Q19.65 -20.9 17.2 -20.3Q14.8 -19.7 13.6 -19.7Q11.1 -19.7 11.1 -21.15Q11.1 -21.85 11.5 -22.55Q11.95 -23.3 12.45 -23.5Q12.95 -23.75 13.85 -23.75Q15.3 -23.75 16.05 -24.05Q19.9 -25.35 29.05 -25.35Q34.9 -25.35 37.55 -24.85Q40.2 -24.35 40.2 -23.75M27.45 -12.65Q29 -12.65 29.55 -13Q30.15 -13.4 30.15 -14.45Q30.15 -15.05 29.6 -15.2Q29.1 -15.4 27.95 -15.4Q26.85 -15.4 26.4 -15.2Q26 -15.05 26 -14.1Q26 -13.15 26.25 -12.9Q26.55 -12.65 27.45 -12.65" />
</g>
<g id="PathID_43" transform="matrix(0.842744, 0, 0, 0.842744, 494.85, 134.15)" opacity="1">
<path style="fill:#221E20;fill-opacity:1" d="M20.15 -30.8Q21 -30.8 21.5 -30.4Q22.05 -30 22.05 -28.85Q22.05 -27.75 20.95 -26.95Q19.9 -26.2 18.4 -24.4Q16.9 -22.65 16.7 -22.3Q16.5 -22 16.5 -21.5Q16.5 -21 17.6 -18.7Q18.75 -16.45 19.1 -15.95Q19.5 -15.45 19.5 -14.75Q19.5 -14.1 18.9 -13.4Q18.35 -12.7 15.5 -11.2Q12.65 -9.75 9.9 -8.7Q8.95 -8.25 8.95 -7.15Q8.9 -2.9 8.6 -1.6Q8.3 -0.35 8.3 0Q8.3 0.4 8.4 0.55Q8.55 0.7 8.55 0.8Q8.55 1.3 7.8 1.3Q5.75 1.3 5.75 -2.65L5.85 -5.9Q6 -8.9 6 -12.65Q6 -16.45 5.75 -19.6Q5.55 -22.75 5.25 -23.15Q4.65 -23.85 4.65 -26.4Q4.65 -29 4.9 -29.9Q5.2 -30.85 6 -30.85Q6.45 -30.85 7 -30.35Q7.35 -30.15 7.65 -30.15Q7.95 -30.15 8.15 -30.25Q12.3 -31.35 14.2 -31.35Q16.15 -31.35 17.2 -30.95Q18.3 -30.6 18.7 -30.6Q19.1 -30.6 19.45 -30.7L20.15 -30.8M14.2 -25.8Q12.85 -25.8 10.95 -25.25Q9.1 -24.75 8.85 -24.45Q8.65 -24.15 8.65 -23.25Q8.65 -22.35 8.9 -21.95Q9.2 -21.55 10.05 -21.55Q10.9 -21.55 12.95 -23.1Q15.05 -24.7 15.05 -25.25Q15.05 -25.8 14.2 -25.8M15.05 -15.65Q15.05 -16.3 14 -16.8Q13 -17.35 12.3 -17.35Q11.6 -17.35 10.3 -17Q9.05 -16.65 8.9 -16.25L8.8 -15.65L8.85 -13.25Q8.9 -12.05 9 -11.9Q9.15 -11.75 9.65 -11.75Q10.15 -11.75 11.7 -12.4Q13.25 -13.05 14.15 -13.9Q15.05 -14.8 15.05 -15.65M44.4 -28.5Q44.4 -27.95 43.85 -27.05Q43.3 -26.2 42.55 -25.75Q41.8 -25.35 40.95 -25.25Q40.15 -25.15 38.15 -25.15Q30.9 -25.15 25.7 -24.55L24.25 -24.5Q23.55 -24.5 23.15 -25Q22.75 -25.5 22.75 -27.05Q22.75 -28.6 23.3 -29.55Q23.85 -30.5 24.45 -30.5Q24.6 -30.5 24.85 -30.35Q25.1 -30.2 25.45 -30.2L26.1 -30.25Q29.55 -31.15 32.65 -31.15Q35.75 -31.15 37.75 -30.9Q39.8 -30.65 41.7 -30.1Q43.65 -29.55 44 -29.25Q44.4 -28.95 44.4 -28.5M46.75 -20.85Q46.75 -19.9 46.1 -18.45Q45.5 -17 44 -16Q42.5 -15.05 41.3 -15.05Q40.1 -15.05 39.4 -15.4Q38.7 -15.75 37 -15.95Q35.35 -16.2 34.45 -16.2Q33.6 -16.2 33.3 -15.95Q33 -15.75 32.85 -15.1Q32.7 -14.5 32.6 -11.35L32.5 -5.25L32.55 -1Q32.55 0.4 32.1 0.95Q31.7 1.5 30.95 1.5Q30.25 1.5 30.1 1.15L29.9 -0.15L29.8 -1.75Q29.8 -2.45 30.05 -5.15Q30.35 -7.85 30.35 -10.8Q30.35 -13.8 30.15 -14.8Q29.95 -15.85 29.05 -15.85Q28.15 -15.85 26.25 -15.6Q24.4 -15.4 24.05 -15.2Q23.15 -14.7 22.45 -14.7Q20.55 -14.7 20.55 -17.75Q20.55 -19.25 21.25 -20.05Q21.95 -20.85 22.45 -20.85Q22.95 -20.85 23.3 -20.65Q23.7 -20.45 24.85 -20.45Q26.05 -20.45 26.85 -20.75Q29.05 -21.75 31.45 -21.75Q33.85 -21.75 36.3 -21.4Q38.75 -21.1 40.3 -21.1Q44.9 -21.1 45.85 -21.55L46.3 -21.65Q46.75 -21.65 46.75 -20.85M37.15 -12.7Q37.7 -12.7 38.1 -12.05Q38.55 -11.4 40.4 -9.85Q42.3 -8.35 43.3 -7.85Q44.3 -7.4 45.7 -6Q47.1 -4.65 47.1 -4.05Q47.1 -3.5 45.2 -2.15Q43.35 -0.85 41.6 -0.85Q40.55 -0.85 39.7 -1.3Q38.9 -1.8 38.3 -2.9Q37.7 -4.05 36.45 -7.35Q35.25 -10.7 35.25 -11.3Q35.25 -11.95 36 -12.3Q36.75 -12.7 37.15 -12.7M27.05 -10.9Q27.05 -9.55 24.3 -5.75Q21.6 -2 19.5 -2Q18 -2 16.45 -3.9Q14.95 -5.85 14.95 -6.3Q14.95 -6.75 15.45 -6.8Q16.7 -6.9 19.2 -7.95Q21.75 -9 22.8 -9.95Q25.35 -12.15 26.25 -12.15Q26.5 -12.15 26.75 -11.75Q27.05 -11.4 27.05 -10.9" />
</g>
<g id="PathID_44" transform="matrix(0.48308, 0, 0, 0.48308, 187.1, 172.5)" opacity="1">
<path style="fill:#221E20;fill-opacity:1" d="M25.9 -34.85L27.65 -34.85L30.35 -24.1L28.05 -23.4Q25.9 -27.9 22.6 -30.3Q19.35 -32.7 15.55 -32.7Q12.3 -32.7 10.2 -31.1Q8.1 -29.55 8.1 -27.3Q8.1 -25.25 9.8 -23.85Q11.55 -22.45 15.35 -21.35L21.85 -19.45Q26.8 -18 29.2 -15.6Q31.6 -13.25 31.6 -9.75Q31.6 -5.5 27.85 -2.4Q24.15 0.65 18.55 0.65Q15.35 0.65 12.95 -0.3Q10.6 -1.3 8.15 -3.3L7.05 0L5.3 0L2.95 -12.5L5.3 -13Q7.15 -7.85 10.8 -5Q14.45 -2.2 18.55 -2.2Q21.95 -2.2 24.5 -4.1Q27.1 -6 27.1 -8.65Q27.1 -11.1 25.3 -12.5Q23.55 -13.95 19.6 -15.1L13.35 -16.85Q8.45 -18.25 6.1 -20.55Q3.75 -22.85 3.75 -26.25Q3.75 -30 7.15 -32.7Q10.6 -35.45 15.85 -35.45Q21.2 -35.45 24.8 -32.45L25.9 -34.85" />
</g>
<g id="PathID_45" transform="matrix(0.48308, 0, 0, 0.48308, 203.35, 172.5)" opacity="1">
<path style="fill:#221E20;fill-opacity:1" d="M5.1 -32.6Q5.1 -33.8 5.95 -34.6Q6.8 -35.45 8 -35.45Q9.2 -35.45 10.05 -34.6Q10.9 -33.75 10.9 -32.6Q10.9 -31.35 10.05 -30.5Q9.2 -29.65 8 -29.65Q6.8 -29.65 5.95 -30.5Q5.1 -31.35 5.1 -32.6M1.6 -20.5L1.6 -22.55Q5.5 -23.05 8.3 -24.7L10.15 -24.7L10.15 -4.65Q10.15 -2.95 10.95 -2.5Q11.8 -2.05 13.25 -2.05L14.4 -2.05L14.4 0L1.6 0L1.6 -2.05L2.65 -2.05Q4.8 -2.05 5.35 -2.75Q5.95 -3.45 5.95 -5.8L5.95 -20.5L1.6 -20.5" />
</g>
<g id="PathID_46" transform="matrix(0.48308, 0, 0, 0.48308, 210.75, 172.5)" opacity="1">
<path style="fill:#221E20;fill-opacity:1" d="M1.85 -20.5L1.85 -22.6Q4.1 -22.8 5.25 -23.2Q6.45 -23.65 8.35 -24.7L10.15 -24.7L10.15 -19.95Q13 -22.35 15.4 -23.5Q17.8 -24.7 20.5 -24.7Q22.35 -24.7 23.8 -24.15Q25.25 -23.6 26.25 -22.6Q27.25 -21.65 27.75 -20.4Q28.25 -19.2 28.25 -16.65L28.25 -5.65Q28.25 -3.9 28.45 -3.2Q28.7 -2.55 29.55 -2.3Q30.4 -2.05 32.5 -2.05L32.5 0L19.65 0L19.65 -2.05L20.3 -2.05Q22.6 -2.05 23.3 -2.7Q24 -3.4 24 -5.9L24 -15.1Q24 -18.05 23.5 -19.15Q23 -20.25 21.9 -20.9Q20.8 -21.55 19.2 -21.55Q14.8 -21.55 10.35 -17.45L10.35 -5.9Q10.35 -4.05 10.7 -3.25Q11.05 -2.5 11.7 -2.25Q12.4 -2.05 14 -2.05L14.7 -2.05L14.7 0L1.85 0L1.85 -2.05L2.5 -2.05Q4.15 -2.05 4.85 -2.3Q5.55 -2.55 5.8 -3.35Q6.1 -4.2 6.1 -6.25L6.1 -20.5L1.85 -20.5" />
</g>
<g id="PathID_47" transform="matrix(0.48308, 0, 0, 0.48308, 227, 172.5)" opacity="1">
<path style="fill:#221E20;fill-opacity:1" d="M2 -12Q2 -17.65 5.45 -21.15Q8.9 -24.7 14.45 -24.7Q19.95 -24.7 23.25 -21.2Q26.6 -17.75 26.6 -12.05Q26.6 -6.3 23.2 -2.8Q19.85 0.65 14.15 0.65Q8.6 0.65 5.3 -2.9Q2 -6.45 2 -12M21.8 -12.1Q21.8 -16.8 19.8 -19.55Q17.85 -22.3 14.25 -22.3Q11 -22.3 8.95 -19.4Q6.95 -16.55 6.95 -11.85Q6.95 -7 8.85 -4.3Q10.8 -1.6 14.25 -1.6Q17.65 -1.6 19.7 -4.45Q21.8 -7.3 21.8 -12.1" />
</g>
<g id="PathID_48" transform="matrix(0.48308, 0, 0, 0.48308, 240.85, 172.5)" opacity="1">
<path style="fill:#221E20;fill-opacity:1" d="M18.75 -24.1L20.5 -24.1L22.75 -16.45L20.5 -15.7Q19.05 -18.8 16.65 -20.55Q14.3 -22.3 11.75 -22.3Q9.9 -22.3 8.65 -21.35Q7.45 -20.45 7.45 -19.2Q7.45 -17.65 8.85 -16.8Q10.3 -15.95 12.15 -15.3L17 -13.6Q20.7 -12.3 22.4 -10.65Q24.15 -9.05 24.15 -6.6Q24.15 -3.65 21.55 -1.5Q18.95 0.65 15.05 0.65Q10.9 0.65 7.85 -1.75L7.35 0L5.55 0L2.45 -8.15L4.7 -9.05Q9.25 -1.8 15.1 -1.8Q17.2 -1.8 18.65 -2.95Q20.1 -4.1 20.1 -5.55Q20.1 -6.9 19.15 -7.75Q18.2 -8.65 15.75 -9.55L9.95 -11.7Q6.6 -12.95 4.95 -14.5Q3.35 -16.05 3.35 -18.3Q3.35 -20.85 5.75 -22.75Q8.15 -24.7 11.7 -24.7Q15.55 -24.7 18.1 -22.6L18.75 -24.1" />
</g>
<g id="PathID_49" transform="matrix(0.48308, 0, 0, 0.48308, 253.65, 172.5)" opacity="1">
<path style="fill:#221E20;fill-opacity:1" d="M0.9 -24.1L10.35 -24.5L10.35 -8.35Q10.35 -2.4 15.6 -2.4Q19.9 -2.4 25.15 -6.65L25.15 -18.3Q25.15 -20.7 24.4 -21.35Q23.65 -22 21.75 -22L19.9 -22L19.9 -24.1L29.35 -24.5L29.35 -5.8Q29.35 -3.7 29.9 -2.75Q30.5 -1.85 32.95 -1.85L33.7 -1.85L33.7 0.25L25.4 0.65L25.4 -4.15Q22.25 -1.7 19.65 -0.5Q17.1 0.65 14.25 0.65Q10.5 0.65 8.3 -1.5Q6.1 -3.65 6.1 -7.15L6.1 -18.5Q6.1 -20.4 5.5 -21.2Q4.9 -22 3.2 -22L0.9 -22L0.9 -24.1" />
</g>
<g id="PathID_50" transform="matrix(0.48308, 0, 0, 0.48308, 270.45, 172.5)" opacity="1">
<path style="fill:#221E20;fill-opacity:1" d="M23.95 -6.95L25.5 -5.65Q20.8 0.65 14.25 0.65Q9.15 0.65 5.6 -3Q2.05 -6.7 2.05 -12.1Q2.05 -17.6 5.65 -21.15Q9.3 -24.7 14.95 -24.7Q19.3 -24.7 22.15 -22.55Q25 -20.45 25 -18.3Q25 -17.25 24.35 -16.6Q23.7 -15.95 22.75 -15.95Q21.9 -15.95 21.4 -16.4Q20.95 -16.9 19.3 -20.25Q18.9 -21.05 17.5 -21.7Q16.15 -22.4 14.8 -22.4Q11.45 -22.4 9.2 -19.6Q6.95 -16.8 6.95 -12.25Q6.95 -7.75 9.25 -4.85Q11.55 -1.95 15 -1.95Q19.85 -1.95 23.95 -6.95" />
</g>
<g id="PathID_51" transform="matrix(0.48308, 0, 0, 0.48308, 299.05, 172.5)" opacity="1">
<path style="fill:#221E20;fill-opacity:1" d="M2 -34.85L15.35 -34.85L15.35 -32.75L14.3 -32.75Q12.4 -32.75 11.7 -31.95Q11 -31.15 11 -28.35L11 -5.85Q11 -3.7 11.55 -2.85Q12.1 -2.05 14.3 -2.05L15.35 -2.05L15.35 0L2 0L2 -2.05L3.1 -2.05Q5 -2.05 5.7 -2.7Q6.4 -3.4 6.4 -5.85L6.4 -28.85Q6.4 -31.15 5.8 -31.95Q5.25 -32.75 3.1 -32.75L2 -32.75L2 -34.85" />
</g>
<g id="PathID_52" transform="matrix(0.48308, 0, 0, 0.48308, 307.45, 172.5)" opacity="1">
<path style="fill:#221E20;fill-opacity:1" d="M1.85 -20.5L1.85 -22.6Q4.1 -22.8 5.25 -23.2Q6.45 -23.65 8.35 -24.7L10.15 -24.7L10.15 -19.95Q13 -22.35 15.4 -23.5Q17.8 -24.7 20.5 -24.7Q22.35 -24.7 23.8 -24.15Q25.25 -23.6 26.25 -22.6Q27.25 -21.65 27.75 -20.4Q28.25 -19.2 28.25 -16.65L28.25 -5.65Q28.25 -3.9 28.45 -3.2Q28.7 -2.55 29.55 -2.3Q30.4 -2.05 32.5 -2.05L32.5 0L19.65 0L19.65 -2.05L20.3 -2.05Q22.6 -2.05 23.3 -2.7Q24 -3.4 24 -5.9L24 -15.1Q24 -18.05 23.5 -19.15Q23 -20.25 21.9 -20.9Q20.8 -21.55 19.2 -21.55Q14.8 -21.55 10.35 -17.45L10.35 -5.9Q10.35 -4.05 10.7 -3.25Q11.05 -2.5 11.7 -2.25Q12.4 -2.05 14 -2.05L14.7 -2.05L14.7 0L1.85 0L1.85 -2.05L2.5 -2.05Q4.15 -2.05 4.85 -2.3Q5.55 -2.55 5.8 -3.35Q6.1 -4.2 6.1 -6.25L6.1 -20.5L1.85 -20.5" />
</g>
<g id="PathID_53" transform="matrix(0.48308, 0, 0, 0.48308, 323.75, 172.5)" opacity="1">
<path style="fill:#221E20;fill-opacity:1" d="M8.4 -32.6L10.15 -32.6L10.15 -24.1L17.6 -24.1L17.6 -21.6L10.15 -21.6L10.15 -6.55Q10.15 -3.75 11.1 -2.8Q12.05 -1.9 13.5 -1.9Q15.9 -1.9 18.7 -4L18.7 -1.6Q15.45 0.65 12.05 0.65Q10.2 0.65 8.6 -0.25Q7.05 -1.15 6.5 -2.3Q6 -3.5 6 -6.2L6 -21.6L1.6 -21.6L1.6 -23.7Q4.75 -24.45 6.25 -26.35Q7.75 -28.3 8.4 -32.6" />
</g>
<g id="PathID_54" transform="matrix(0.48308, 0, 0, 0.48308, 333.1, 172.5)" opacity="1">
<path style="fill:#221E20;fill-opacity:1" d="M24.9 -6.45L26.5 -5.15Q24.15 -2.15 21.7 -0.75Q19.3 0.65 16.15 0.65Q12.35 0.65 9.5 -1.05Q6.65 -2.75 5.15 -5.8Q3.7 -8.9 3.7 -12.2Q3.7 -17.5 7.05 -21.1Q10.45 -24.7 15.95 -24.7Q20.65 -24.7 23.45 -21.95Q26.25 -19.2 26.35 -14.15L8.7 -14.15L8.65 -12.25Q8.65 -7.65 10.85 -4.8Q13.05 -1.95 16.7 -1.95Q19.2 -1.95 21.05 -3.15Q22.95 -4.4 24.9 -6.45M21.75 -16.5Q20.75 -22.35 15.85 -22.35Q13.2 -22.35 11.55 -20.9Q9.95 -19.45 9.05 -16.5L21.75 -16.5" />
</g>
<g id="PathID_55" transform="matrix(0.48308, 0, 0, 0.48308, 345.95, 172.5)" opacity="1">
<path style="fill:#221E20;fill-opacity:1" d="M1.75 -20.5L1.75 -22.55Q5.1 -22.75 8.25 -24.7L10.15 -24.7L10.15 -20Q12 -22.2 14.3 -23.45Q16.6 -24.7 18.5 -24.7Q20.3 -24.7 21.3 -23.8Q22.3 -22.95 22.3 -21.65Q22.3 -20.75 21.55 -20.1Q20.8 -19.45 19.9 -19.45Q19.2 -19.45 18.55 -19.9Q17.2 -21 16.05 -21Q14.85 -21 13.25 -19.9Q11.65 -18.85 10.3 -17.3L10.3 -5.75Q10.3 -3.65 10.95 -2.85Q11.65 -2.05 13.85 -2.05L14.7 -2.05L14.7 0L1.75 0L1.75 -2.05L2.85 -2.05Q5.05 -2.05 5.55 -2.9Q6.1 -3.75 6.1 -5.75L6.1 -20.5L1.75 -20.5" />
</g>
<g id="PathID_56" transform="matrix(0.48308, 0, 0, 0.48308, 356.8, 172.5)" opacity="1">
<path style="fill:#221E20;fill-opacity:1" d="M1.85 -20.5L1.85 -22.6Q4.1 -22.8 5.25 -23.2Q6.45 -23.65 8.35 -24.7L10.15 -24.7L10.15 -19.95Q13 -22.35 15.4 -23.5Q17.8 -24.7 20.5 -24.7Q22.35 -24.7 23.8 -24.15Q25.25 -23.6 26.25 -22.6Q27.25 -21.65 27.75 -20.4Q28.25 -19.2 28.25 -16.65L28.25 -5.65Q28.25 -3.9 28.45 -3.2Q28.7 -2.55 29.55 -2.3Q30.4 -2.05 32.5 -2.05L32.5 0L19.65 0L19.65 -2.05L20.3 -2.05Q22.6 -2.05 23.3 -2.7Q24 -3.4 24 -5.9L24 -15.1Q24 -18.05 23.5 -19.15Q23 -20.25 21.9 -20.9Q20.8 -21.55 19.2 -21.55Q14.8 -21.55 10.35 -17.45L10.35 -5.9Q10.35 -4.05 10.7 -3.25Q11.05 -2.5 11.7 -2.25Q12.4 -2.05 14 -2.05L14.7 -2.05L14.7 0L1.85 0L1.85 -2.05L2.5 -2.05Q4.15 -2.05 4.85 -2.3Q5.55 -2.55 5.8 -3.35Q6.1 -4.2 6.1 -6.25L6.1 -20.5L1.85 -20.5" />
</g>
<g id="PathID_57" transform="matrix(0.48308, 0, 0, 0.48308, 373.1, 172.5)" opacity="1">
<path style="fill:#221E20;fill-opacity:1" d="M19.8 -14.2L19.8 -17.2Q19.8 -22.35 13.85 -22.35Q11.25 -22.35 10 -21.3Q8.75 -20.25 8.2 -17.6Q8 -16.5 7.4 -15.9Q6.8 -15.35 5.85 -15.35Q4.9 -15.35 4.25 -16.05Q3.65 -16.75 3.65 -17.9Q3.65 -20.5 6.6 -22.6Q9.6 -24.7 14.55 -24.7Q19.6 -24.7 21.85 -22.65Q24.15 -20.6 24.15 -16.2L24.15 -6.3Q24.15 -4.05 24.35 -3.25Q24.6 -2.5 25.3 -2Q26 -1.5 26.85 -1.5Q27.8 -1.5 29.4 -2.05L29.4 0.15Q27.5 0.65 25.8 0.65Q20.8 0.65 20.05 -3.55Q17.4 -1.4 14.95 -0.35Q12.5 0.65 9.7 0.65Q6.4 0.65 4.15 -1.15Q1.95 -3 1.95 -5.55Q1.95 -9 5.4 -11Q8.9 -13.05 19.8 -14.2M19.8 -12Q10.8 -10.85 8.65 -9.45Q6.55 -8.05 6.55 -6Q6.55 -4.45 7.8 -3.35Q9.05 -2.25 10.9 -2.25Q14.5 -2.25 19.8 -5.95L19.8 -12" />
</g>
<g id="PathID_58" transform="matrix(0.48308, 0, 0, 0.48308, 387.45, 172.5)" opacity="1">
<path style="fill:#221E20;fill-opacity:1" d="M8.4 -32.6L10.15 -32.6L10.15 -24.1L17.6 -24.1L17.6 -21.6L10.15 -21.6L10.15 -6.55Q10.15 -3.75 11.1 -2.8Q12.05 -1.9 13.5 -1.9Q15.9 -1.9 18.7 -4L18.7 -1.6Q15.45 0.65 12.05 0.65Q10.2 0.65 8.6 -0.25Q7.05 -1.15 6.5 -2.3Q6 -3.5 6 -6.2L6 -21.6L1.6 -21.6L1.6 -23.7Q4.75 -24.45 6.25 -26.35Q7.75 -28.3 8.4 -32.6" />
</g>
<g id="PathID_59" transform="matrix(0.48308, 0, 0, 0.48308, 396.8, 172.5)" opacity="1">
<path style="fill:#221E20;fill-opacity:1" d="M5.1 -32.6Q5.1 -33.8 5.95 -34.6Q6.8 -35.45 8 -35.45Q9.2 -35.45 10.05 -34.6Q10.9 -33.75 10.9 -32.6Q10.9 -31.35 10.05 -30.5Q9.2 -29.65 8 -29.65Q6.8 -29.65 5.95 -30.5Q5.1 -31.35 5.1 -32.6M1.6 -20.5L1.6 -22.55Q5.5 -23.05 8.3 -24.7L10.15 -24.7L10.15 -4.65Q10.15 -2.95 10.95 -2.5Q11.8 -2.05 13.25 -2.05L14.4 -2.05L14.4 0L1.6 0L1.6 -2.05L2.65 -2.05Q4.8 -2.05 5.35 -2.75Q5.95 -3.45 5.95 -5.8L5.95 -20.5L1.6 -20.5" />
</g>
<g id="PathID_60" transform="matrix(0.48308, 0, 0, 0.48308, 404.2, 172.5)" opacity="1">
<path style="fill:#221E20;fill-opacity:1" d="M2 -12Q2 -17.65 5.45 -21.15Q8.9 -24.7 14.45 -24.7Q19.95 -24.7 23.25 -21.2Q26.6 -17.75 26.6 -12.05Q26.6 -6.3 23.2 -2.8Q19.85 0.65 14.15 0.65Q8.6 0.65 5.3 -2.9Q2 -6.45 2 -12M21.8 -12.1Q21.8 -16.8 19.8 -19.55Q17.85 -22.3 14.25 -22.3Q11 -22.3 8.95 -19.4Q6.95 -16.55 6.95 -11.85Q6.95 -7 8.85 -4.3Q10.8 -1.6 14.25 -1.6Q17.65 -1.6 19.7 -4.45Q21.8 -7.3 21.8 -12.1" />
</g>
<g id="PathID_61" transform="matrix(0.48308, 0, 0, 0.48308, 418, 172.5)" opacity="1">
<path style="fill:#221E20;fill-opacity:1" d="M1.85 -20.5L1.85 -22.6Q4.1 -22.8 5.25 -23.2Q6.45 -23.65 8.35 -24.7L10.15 -24.7L10.15 -19.95Q13 -22.35 15.4 -23.5Q17.8 -24.7 20.5 -24.7Q22.35 -24.7 23.8 -24.15Q25.25 -23.6 26.25 -22.6Q27.25 -21.65 27.75 -20.4Q28.25 -19.2 28.25 -16.65L28.25 -5.65Q28.25 -3.9 28.45 -3.2Q28.7 -2.55 29.55 -2.3Q30.4 -2.05 32.5 -2.05L32.5 0L19.65 0L19.65 -2.05L20.3 -2.05Q22.6 -2.05 23.3 -2.7Q24 -3.4 24 -5.9L24 -15.1Q24 -18.05 23.5 -19.15Q23 -20.25 21.9 -20.9Q20.8 -21.55 19.2 -21.55Q14.8 -21.55 10.35 -17.45L10.35 -5.9Q10.35 -4.05 10.7 -3.25Q11.05 -2.5 11.7 -2.25Q12.4 -2.05 14 -2.05L14.7 -2.05L14.7 0L1.85 0L1.85 -2.05L2.5 -2.05Q4.15 -2.05 4.85 -2.3Q5.55 -2.55 5.8 -3.35Q6.1 -4.2 6.1 -6.25L6.1 -20.5L1.85 -20.5" />
</g>
<g id="PathID_62" transform="matrix(0.48308, 0, 0, 0.48308, 434.25, 172.5)" opacity="1">
<path style="fill:#221E20;fill-opacity:1" d="M19.8 -14.2L19.8 -17.2Q19.8 -22.35 13.85 -22.35Q11.25 -22.35 10 -21.3Q8.75 -20.25 8.2 -17.6Q8 -16.5 7.4 -15.9Q6.8 -15.35 5.85 -15.35Q4.9 -15.35 4.25 -16.05Q3.65 -16.75 3.65 -17.9Q3.65 -20.5 6.6 -22.6Q9.6 -24.7 14.55 -24.7Q19.6 -24.7 21.85 -22.65Q24.15 -20.6 24.15 -16.2L24.15 -6.3Q24.15 -4.05 24.35 -3.25Q24.6 -2.5 25.3 -2Q26 -1.5 26.85 -1.5Q27.8 -1.5 29.4 -2.05L29.4 0.15Q27.5 0.65 25.8 0.65Q20.8 0.65 20.05 -3.55Q17.4 -1.4 14.95 -0.35Q12.5 0.65 9.7 0.65Q6.4 0.65 4.15 -1.15Q1.95 -3 1.95 -5.55Q1.95 -9 5.4 -11Q8.9 -13.05 19.8 -14.2M19.8 -12Q10.8 -10.85 8.65 -9.45Q6.55 -8.05 6.55 -6Q6.55 -4.45 7.8 -3.35Q9.05 -2.25 10.9 -2.25Q14.5 -2.25 19.8 -5.95L19.8 -12" />
</g>
<g id="PathID_63" transform="matrix(0.48308, 0, 0, 0.48308, 448.6, 172.5)" opacity="1">
<path style="fill:#221E20;fill-opacity:1" d="M1.55 -32.5L1.55 -34.55Q5.05 -34.85 8.15 -36.65L10 -36.65L10 -5.85Q10 -3.6 10.65 -2.8Q11.35 -2.05 13.65 -2.05L14.4 -2.05L14.4 0L1.55 0L1.55 -2.05L2.85 -2.05Q4.5 -2.05 5.15 -2.8Q5.8 -3.6 5.8 -6.05L5.8 -32.5L1.55 -32.5" />
</g>
<g id="PathID_64" transform="matrix(0.48308, 0, 0, 0.48308, 463.85, 172.5)" opacity="1">
<path style="fill:#221E20;fill-opacity:1" d="M3.8 -36L5.55 -36L5.8 -34.85L25.85 -34.85L26.05 -36L27.9 -36L31.5 -25.8L29.25 -24.95Q27.75 -28.95 25.85 -30.65Q24 -32.4 20.4 -32.4Q18.85 -32.4 18.5 -32.05Q18.15 -31.7 18.15 -30.15L18.15 -5.95Q18.15 -3.3 19.15 -2.65Q20.15 -2.05 22.6 -2.05L22.6 0L9.15 0L9.15 -2.05Q11.2 -2.05 12.1 -2.35Q13 -2.65 13.25 -3.35Q13.5 -4.05 13.5 -5.75L13.5 -30.5Q13.5 -31.7 13.2 -32.05Q12.95 -32.4 11.7 -32.4Q7.55 -32.4 5.8 -30.6Q4.05 -28.85 2.5 -24.95L0.25 -25.8L3.8 -36" />
</g>
<g id="PathID_65" transform="matrix(0.48308, 0, 0, 0.48308, 479.15, 172.5)" opacity="1">
<path style="fill:#221E20;fill-opacity:1" d="M1.75 -20.5L1.75 -22.55Q5.1 -22.75 8.25 -24.7L10.15 -24.7L10.15 -20Q12 -22.2 14.3 -23.45Q16.6 -24.7 18.5 -24.7Q20.3 -24.7 21.3 -23.8Q22.3 -22.95 22.3 -21.65Q22.3 -20.75 21.55 -20.1Q20.8 -19.45 19.9 -19.45Q19.2 -19.45 18.55 -19.9Q17.2 -21 16.05 -21Q14.85 -21 13.25 -19.9Q11.65 -18.85 10.3 -17.3L10.3 -5.75Q10.3 -3.65 10.95 -2.85Q11.65 -2.05 13.85 -2.05L14.7 -2.05L14.7 0L1.75 0L1.75 -2.05L2.85 -2.05Q5.05 -2.05 5.55 -2.9Q6.1 -3.75 6.1 -5.75L6.1 -20.5L1.75 -20.5" />
</g>
<g id="PathID_66" transform="matrix(0.48308, 0, 0, 0.48308, 490, 172.5)" opacity="1">
<path style="fill:#221E20;fill-opacity:1" d="M19.8 -14.2L19.8 -17.2Q19.8 -22.35 13.85 -22.35Q11.25 -22.35 10 -21.3Q8.75 -20.25 8.2 -17.6Q8 -16.5 7.4 -15.9Q6.8 -15.35 5.85 -15.35Q4.9 -15.35 4.25 -16.05Q3.65 -16.75 3.65 -17.9Q3.65 -20.5 6.6 -22.6Q9.6 -24.7 14.55 -24.7Q19.6 -24.7 21.85 -22.65Q24.15 -20.6 24.15 -16.2L24.15 -6.3Q24.15 -4.05 24.35 -3.25Q24.6 -2.5 25.3 -2Q26 -1.5 26.85 -1.5Q27.8 -1.5 29.4 -2.05L29.4 0.15Q27.5 0.65 25.8 0.65Q20.8 0.65 20.05 -3.55Q17.4 -1.4 14.95 -0.35Q12.5 0.65 9.7 0.65Q6.4 0.65 4.15 -1.15Q1.95 -3 1.95 -5.55Q1.95 -9 5.4 -11Q8.9 -13.05 19.8 -14.2M19.8 -12Q10.8 -10.85 8.65 -9.45Q6.55 -8.05 6.55 -6Q6.55 -4.45 7.8 -3.35Q9.05 -2.25 10.9 -2.25Q14.5 -2.25 19.8 -5.95L19.8 -12" />
</g>
<g id="PathID_67" transform="matrix(0.48308, 0, 0, 0.48308, 504.35, 172.5)" opacity="1">
<path style="fill:#221E20;fill-opacity:1" d="M17.4 -32.45L17.4 -34.55Q20.55 -34.75 24.05 -36.65L25.95 -36.65L25.95 -6.3Q25.95 -4.35 26.15 -3.45Q26.4 -2.6 27 -2.3Q27.65 -2.05 29.2 -2.05L30.3 -2.05L30.3 0L21.6 0.45L21.6 -3.55Q17.15 0.65 12.5 0.65Q8.05 0.65 5 -2.95Q2 -6.6 2 -11.75Q2 -17.2 5.3 -20.95Q8.65 -24.7 13.5 -24.7Q18.4 -24.7 21.6 -21.4L21.6 -32.45L17.4 -32.45M21.6 -6L21.6 -15.5Q21.6 -18.8 19.35 -20.4Q17.15 -22 14.75 -22Q11.35 -22 9.1 -19.2Q6.85 -16.45 6.85 -11.95Q6.85 -7.65 8.9 -4.95Q10.95 -2.3 13.75 -2.3Q15.4 -2.3 17.5 -3.3Q19.65 -4.3 21.6 -6" />
</g>
<g id="PathID_68" transform="matrix(0.48308, 0, 0, 0.48308, 519.65, 172.5)" opacity="1">
<path style="fill:#221E20;fill-opacity:1" d="M24.9 -6.45L26.5 -5.15Q24.15 -2.15 21.7 -0.75Q19.3 0.65 16.15 0.65Q12.35 0.65 9.5 -1.05Q6.65 -2.75 5.15 -5.8Q3.7 -8.9 3.7 -12.2Q3.7 -17.5 7.05 -21.1Q10.45 -24.7 15.95 -24.7Q20.65 -24.7 23.45 -21.95Q26.25 -19.2 26.35 -14.15L8.7 -14.15L8.65 -12.25Q8.65 -7.65 10.85 -4.8Q13.05 -1.95 16.7 -1.95Q19.2 -1.95 21.05 -3.15Q22.95 -4.4 24.9 -6.45M21.75 -16.5Q20.75 -22.35 15.85 -22.35Q13.2 -22.35 11.55 -20.9Q9.95 -19.45 9.05 -16.5L21.75 -16.5" />
</g>
<g id="PathID_69" transform="matrix(0.48308, 0, 0, 0.48308, 540.35, 172.5)" opacity="1">
<path style="fill:#221E20;fill-opacity:1" d="M30.2 -34.85L32 -34.85L35.15 -23.2L32.85 -22.55Q30.8 -27.75 27.9 -30.25Q25.05 -32.8 20.7 -32.8Q15.35 -32.8 11.75 -28.55Q8.15 -24.3 8.15 -17.8Q8.15 -11.05 11.95 -6.75Q15.8 -2.45 21.35 -2.45Q24.65 -2.45 28.1 -4.3Q31.55 -6.2 34.2 -9.65L36.15 -8.3Q33.2 -3.9 29.05 -1.6Q24.95 0.65 20.15 0.65Q12.8 0.65 7.75 -4.5Q2.75 -9.7 2.75 -17.3Q2.75 -22.15 5.1 -26.35Q7.45 -30.6 11.55 -33Q15.65 -35.45 20.3 -35.45Q25.2 -35.45 29.35 -32.55L30.2 -34.85" />
</g>
<g id="PathID_70" transform="matrix(0.48308, 0, 0, 0.48308, 558.65, 172.5)" opacity="1">
<path style="fill:#221E20;fill-opacity:1" d="M2 -12Q2 -17.65 5.45 -21.15Q8.9 -24.7 14.45 -24.7Q19.95 -24.7 23.25 -21.2Q26.6 -17.75 26.6 -12.05Q26.6 -6.3 23.2 -2.8Q19.85 0.65 14.15 0.65Q8.6 0.65 5.3 -2.9Q2 -6.45 2 -12M21.8 -12.1Q21.8 -16.8 19.8 -19.55Q17.85 -22.3 14.25 -22.3Q11 -22.3 8.95 -19.4Q6.95 -16.55 6.95 -11.85Q6.95 -7 8.85 -4.3Q10.8 -1.6 14.25 -1.6Q17.65 -1.6 19.7 -4.45Q21.8 -7.3 21.8 -12.1" />
</g>
<g id="PathID_71" transform="matrix(0.48308, 0, 0, 0.48308, 572.45, 172.5)" opacity="1">
<path style="fill:#221E20;fill-opacity:1" d="M5.05 -2.7Q5.05 -4 5.95 -4.9Q6.9 -5.8 8.15 -5.8Q9.45 -5.8 10.35 -4.85Q11.3 -3.95 11.3 -2.7Q11.3 -1.35 10.35 -0.45Q9.45 0.45 8.15 0.45Q6.9 0.45 5.95 -0.45Q5.05 -1.35 5.05 -2.7" />
</g>
<g id="PathID_72" transform="matrix(0.48308, 0, 0, 0.48308, 580.35, 172.5)" opacity="1">
<path style="fill:#221E20;fill-opacity:1" d="M5.5 9.1L4.15 7.45Q7.05 5.1 8.25 3.25Q9.5 1.4 9.25 -0.35Q8.25 0 7.5 0Q6.4 0 5.7 -0.75Q5 -1.55 5 -2.7Q5 -3.95 5.9 -4.8Q6.8 -5.65 8.15 -5.65Q9.65 -5.65 10.85 -4.3Q12.1 -2.95 12.1 -1Q12.1 1.7 10.6 3.9Q9.15 6.1 5.5 9.1" />
</g>
<g id="PathID_73" transform="matrix(0.48308, 0, 0, 0.48308, 596.1, 172.5)" opacity="1">
<path style="fill:#221E20;fill-opacity:1" d="M2.35 -34.85L15.85 -34.85L15.85 -32.75L14.6 -32.75Q12.95 -32.75 12.15 -32.25Q11.4 -31.75 11.4 -29.75L11.4 -5.45Q11.4 -3.4 11.75 -3Q12.15 -2.65 14.2 -2.65L16.05 -2.65Q20.7 -2.65 23.4 -4.7Q26.1 -6.8 28.25 -11.65L30.45 -10.9L26.55 0L2.35 0L2.35 -2.05L3.4 -2.05Q5.4 -2.05 6.05 -2.65Q6.75 -3.25 6.75 -5.45L6.75 -29.15Q6.75 -31.3 6.2 -32Q5.65 -32.75 3.4 -32.75L2.35 -32.75L2.35 -34.85" />
</g>
<g id="PathID_74" transform="matrix(0.48308, 0, 0, 0.48308, 610.9, 172.5)" opacity="1">
<path style="fill:#221E20;fill-opacity:1" d="M8.4 -32.6L10.15 -32.6L10.15 -24.1L17.6 -24.1L17.6 -21.6L10.15 -21.6L10.15 -6.55Q10.15 -3.75 11.1 -2.8Q12.05 -1.9 13.5 -1.9Q15.9 -1.9 18.7 -4L18.7 -1.6Q15.45 0.65 12.05 0.65Q10.2 0.65 8.6 -0.25Q7.05 -1.15 6.5 -2.3Q6 -3.5 6 -6.2L6 -21.6L1.6 -21.6L1.6 -23.7Q4.75 -24.45 6.25 -26.35Q7.75 -28.3 8.4 -32.6" />
</g>
<g id="PathID_75" transform="matrix(0.48308, 0, 0, 0.48308, 620.3, 172.5)" opacity="1">
<path style="fill:#221E20;fill-opacity:1" d="M17.4 -32.45L17.4 -34.55Q20.55 -34.75 24.05 -36.65L25.95 -36.65L25.95 -6.3Q25.95 -4.35 26.15 -3.45Q26.4 -2.6 27 -2.3Q27.65 -2.05 29.2 -2.05L30.3 -2.05L30.3 0L21.6 0.45L21.6 -3.55Q17.15 0.65 12.5 0.65Q8.05 0.65 5 -2.95Q2 -6.6 2 -11.75Q2 -17.2 5.3 -20.95Q8.65 -24.7 13.5 -24.7Q18.4 -24.7 21.6 -21.4L21.6 -32.45L17.4 -32.45M21.6 -6L21.6 -15.5Q21.6 -18.8 19.35 -20.4Q17.15 -22 14.75 -22Q11.35 -22 9.1 -19.2Q6.85 -16.45 6.85 -11.95Q6.85 -7.65 8.9 -4.95Q10.95 -2.3 13.75 -2.3Q15.4 -2.3 17.5 -3.3Q19.65 -4.3 21.6 -6" />
</g>
<g id="PathID_76" transform="matrix(0.48308, 0, 0, 0.48308, 635.6, 172.5)" opacity="1">
<path style="fill:#221E20;fill-opacity:1" d="M5.05 -2.7Q5.05 -4 5.95 -4.9Q6.9 -5.8 8.15 -5.8Q9.45 -5.8 10.35 -4.85Q11.3 -3.95 11.3 -2.7Q11.3 -1.35 10.35 -0.45Q9.45 0.45 8.15 0.45Q6.9 0.45 5.95 -0.45Q5.05 -1.35 5.05 -2.7" />
</g>
</svg>
